<?xml version="1.0" encoding="UTF-8" standalone="no"?>
<!-- Created with Inkscape (http://www.inkscape.org/) -->

<svg
   xmlns:dc="http://purl.org/dc/elements/1.1/"
   xmlns:cc="http://creativecommons.org/ns#"
   xmlns:rdf="http://www.w3.org/1999/02/22-rdf-syntax-ns#"
   xmlns:svg="http://www.w3.org/2000/svg"
   xmlns="http://www.w3.org/2000/svg"
   xmlns:xlink="http://www.w3.org/1999/xlink"
   xmlns:sodipodi="http://sodipodi.sourceforge.net/DTD/sodipodi-0.dtd"
   xmlns:inkscape="http://www.inkscape.org/namespaces/inkscape"
   width="550"
   height="150"
   viewBox="0 0 145.52082 39.6875"
   version="1.1"
   id="svg8"
   sodipodi:docname="drawing5.svg"
   inkscape:version="0.92.3 (2405546, 2018-03-11)">
  <defs
     id="defs2">
    <linearGradient
       inkscape:collect="always"
       xlink:href="#linearGradient4823"
       id="linearGradient4825"
       x1="293.86459"
       y1="307.33789"
       x2="440.8938"
       y2="504.73544"
       gradientUnits="userSpaceOnUse" />
    <linearGradient
       inkscape:collect="always"
       id="linearGradient4823">
      <stop
         style="stop-color:#000080;stop-opacity:1"
         offset="0"
         id="stop4819" />
      <stop
         style="stop-color:#008000;stop-opacity:1"
         offset="1"
         id="stop4821" />
    </linearGradient>
    <clipPath
       clipPathUnits="userSpaceOnUse"
       id="clipPath4813">
      <circle
         style="fill:url(#radialGradient4817);fill-opacity:1;stroke-width:1"
         id="circle4815"
         cx="361.6752"
         cy="403.82397"
         r="114.14724"
         d="m 476.97009,403.78835 c -0.004,15.24042 -2.74299,30.36315 -8.42263,44.67741 -5.68045,14.31628 -14.42472,28.06642 -25.57634,39.3732 -11.32231,11.47985 -23.81109,19.15867 -37.70724,23.76492 -13.42857,4.45124 -28.74055,6.14933 -43.56443,6.15671 -14.99009,0.007 -30.20865,-1.72074 -44.46146,-6.64614 -14.42918,-4.98635 -28.15787,-13.36024 -39.39651,-24.92138 -11.37318,-11.69955 -18.20756,-24.56418 -21.70745,-38.67996 -3.31706,-13.37835 -3.80028,-29.10737 -3.79776,-43.65012 0.003,-14.53953 0.49264,-30.35505 3.79727,-43.7283 3.49013,-14.12393 10.27474,-26.83054 21.60581,-38.37628 11.1679,-11.37946 24.95044,-19.7356 39.4141,-24.81452 14.3347,-5.03363 29.58896,-6.95233 44.59234,-6.94013 14.87703,0.0121 29.97885,1.91577 43.41915,6.5383 13.8011,4.74662 26.40117,12.49878 37.73215,23.786 11.2223,11.17889 19.96932,24.63769 25.66828,38.8883 5.68032,14.20403 8.40869,29.3399 8.40472,44.57199 z" />
    </clipPath>
    <inkscape:path-effect
       effect="lattice2"
       gridpoint0="256.00781,290.73047"
       gridpoint1="484.21875,290.73047"
       gridpoint2="256.00781,517.4082"
       gridpoint3="484.21875,517.4082"
       gridpoint4="313.06054,290.73047"
       gridpoint5="427.16602,290.73047"
       gridpoint6="313.06054,517.4082"
       gridpoint7="427.16602,517.4082"
       gridpoint8x9="370.11328,290.73047"
       gridpoint10x11="370.11328,517.4082"
       gridpoint12="256.00781,347.3999"
       gridpoint13="484.21875,347.3999"
       gridpoint14="256.00781,460.73877"
       gridpoint15="484.21875,460.73877"
       gridpoint16="303.68139,342.47051"
       gridpoint17="431.7313,341.32919"
       gridpoint18="304.53738,467.36789"
       gridpoint19="430.95409,468.31491"
       gridpoint20x21="369.07523,335.3495"
       gridpoint22x23="370.39861,474.86526"
       gridpoint24x26="256.00781,404.06934"
       gridpoint25x27="484.21875,404.06934"
       gridpoint28x30="292.22614,403.12232"
       gridpoint29x31="432.58729,402.92802"
       gridpoint32x33x34x35="370.11328,404.06934"
       id="path-effect4805"
       is_visible="true"
       horizontal_mirror="false"
       vertical_mirror="false"
       live_update="true" />
  </defs>
  <sodipodi:namedview
     id="base"
     pagecolor="#ffffff"
     bordercolor="#666666"
     borderopacity="1.0"
     inkscape:pageopacity="0.0"
     inkscape:pageshadow="2"
     inkscape:zoom="1.979899"
     inkscape:cx="245.4519"
     inkscape:cy="79.7723"
     inkscape:document-units="mm"
     inkscape:current-layer="layer1"
     showgrid="false"
     inkscape:window-width="1920"
     inkscape:window-height="1025"
     inkscape:window-x="0"
     inkscape:window-y="27"
     inkscape:window-maximized="1"
     units="px" />
  <metadata
     id="metadata5">
    <rdf:RDF>
      <cc:Work
         rdf:about="">
        <dc:format>image/svg+xml</dc:format>
        <dc:type
           rdf:resource="http://purl.org/dc/dcmitype/StillImage" />
        <dc:title></dc:title>
      </cc:Work>
    </rdf:RDF>
  </metadata>
  <g
     inkscape:label="Layer 1"
     inkscape:groupmode="layer"
     id="layer1"
     transform="translate(0,-257.3125)">
    <g
       id="g940"
       transform="translate(-6.3500001,-10.054167)">
      <path
         transform="matrix(0.10710101,0,0,0.10710101,-6.1356311,238.10933)"
         clip-path="url(#clipPath4813)"
         inkscape:connector-curvature="0"
         inkscape:original-d="m 386.88867,290.73047 a 1.9965366,1.9965366 0 0 0 -1.99609,1.99609 1.9965366,1.9965366 0 0 0 1.99609,1.99805 1.9965366,1.9965366 0 0 0 1.9961,-1.99805 1.9965366,1.9965366 0 0 0 -1.9961,-1.99609 z m -18.18359,0.0723 a 1.9252317,1.9252317 0 0 0 -1.92383,1.92383 1.9252317,1.9252317 0 0 0 1.92383,1.92578 1.9252317,1.9252317 0 0 0 1.92578,-1.92578 1.9252317,1.9252317 0 0 0 -1.92578,-1.92383 z m -36.36524,0.10743 a 1.8182744,1.8182744 0 0 0 -1.81836,1.8164 1.8182744,1.8182744 0 0 0 1.81836,1.81836 1.8182744,1.8182744 0 0 0 1.81836,-1.81836 1.8182744,1.8182744 0 0 0 -1.81836,-1.8164 z m 18.1836,0 a 1.8182744,1.8182744 0 0 0 -1.81836,1.8164 1.8182744,1.8182744 0 0 0 1.81836,1.81836 1.8182744,1.8182744 0 0 0 1.81836,-1.81836 1.8182744,1.8182744 0 0 0 -1.81836,-1.8164 z m 36.36523,16.82617 a 3.1730671,3.1730671 0 0 0 -3.17383,3.17383 3.1730671,3.1730671 0 0 0 3.17383,3.17382 3.1730671,3.1730671 0 0 0 3.17188,-3.17382 3.1730671,3.1730671 0 0 0 -3.17188,-3.17383 z m 18.18164,0.0371 a 3.1374147,3.1374147 0 0 0 -3.13672,3.13672 3.1374147,3.1374147 0 0 0 3.13672,3.13672 3.1374147,3.1374147 0 0 0 3.13867,-3.13672 3.1374147,3.1374147 0 0 0 -3.13867,-3.13672 z m 18.1836,0.0351 a 3.1017623,3.1017623 0 0 0 -3.10157,3.10157 3.1017623,3.1017623 0 0 0 3.10157,3.10156 3.1017623,3.1017623 0 0 0 3.10156,-3.10156 3.1017623,3.1017623 0 0 0 -3.10156,-3.10157 z m -54.54883,0.0703 a 3.0304573,3.0304573 0 0 0 -3.0293,3.03125 3.0304573,3.0304573 0 0 0 3.0293,3.03125 3.0304573,3.0304573 0 0 0 3.03125,-3.03125 3.0304573,3.0304573 0 0 0 -3.03125,-3.03125 z m -18.18164,0.32226 a 2.7095854,2.7095854 0 0 0 -2.71094,2.70899 2.7095854,2.7095854 0 0 0 2.71094,2.70898 2.7095854,2.7095854 0 0 0 2.70898,-2.70898 2.7095854,2.7095854 0 0 0 -2.70898,-2.70899 z m -18.1836,0.46289 a 2.2461038,2.2461038 0 0 0 -2.24609,2.2461 2.2461038,2.2461038 0 0 0 2.24609,2.24609 2.2461038,2.2461038 0 0 0 2.2461,-2.24609 2.2461038,2.2461038 0 0 0 -2.2461,-2.2461 z m -18.18164,0.32032 a 1.9252317,1.9252317 0 0 0 -1.92578,1.92578 1.9252317,1.9252317 0 0 0 1.92578,1.92578 1.9252317,1.9252317 0 0 0 1.92383,-1.92578 1.9252317,1.9252317 0 0 0 -1.92383,-1.92578 z m -18.18359,0.10742 a 1.8182744,1.8182744 0 0 0 -1.81836,1.81836 1.8182744,1.8182744 0 0 0 1.81836,1.81836 1.8182744,1.8182744 0 0 0 1.81836,-1.81836 1.8182744,1.8182744 0 0 0 -1.81836,-1.81836 z m 90.91406,15.25976 a 4.741775,4.741775 0 0 0 -4.74219,4.74219 4.741775,4.741775 0 0 0 4.74219,4.74023 4.741775,4.741775 0 0 0 4.74219,-4.74023 4.741775,4.741775 0 0 0 -4.74219,-4.74219 z m 18.18164,0.0352 a 4.7061219,4.7061219 0 0 0 -4.70508,4.70703 4.7061219,4.7061219 0 0 0 4.70508,4.70508 4.7061219,4.7061219 0 0 0 4.70703,-4.70508 4.7061219,4.7061219 0 0 0 -4.70703,-4.70703 z m -36.36523,0.14258 a 4.5635123,4.5635123 0 0 0 -4.5625,4.56445 4.5635123,4.5635123 0 0 0 4.5625,4.5625 4.5635123,4.5635123 0 0 0 4.56445,-4.5625 4.5635123,4.5635123 0 0 0 -4.56445,-4.56445 z m 54.54883,0.14258 a 4.4209023,4.4209023 0 0 0 -4.42188,4.42187 4.4209023,4.4209023 0 0 0 4.42188,4.41992 4.4209023,4.4209023 0 0 0 4.42187,-4.41992 4.4209023,4.4209023 0 0 0 -4.42187,-4.42187 z m -72.73047,0.25 a 4.1713352,4.1713352 0 0 0 -4.17188,4.17187 4.1713352,4.1713352 0 0 0 4.17188,4.16992 4.1713352,4.1713352 0 0 0 4.16992,-4.16992 4.1713352,4.1713352 0 0 0 -4.16992,-4.17187 z m 90.91406,0.0703 a 4.1000304,4.1000304 0 0 0 -4.10156,4.10156 4.1000304,4.1000304 0 0 0 4.10156,4.09961 4.1000304,4.1000304 0 0 0 4.09961,-4.09961 4.1000304,4.1000304 0 0 0 -4.09961,-4.10156 z m -109.09766,0.5 a 3.6008964,3.6008964 0 0 0 -3.59961,3.60156 3.6008964,3.6008964 0 0 0 3.59961,3.59961 3.6008964,3.6008964 0 0 0 3.60157,-3.59961 3.6008964,3.6008964 0 0 0 -3.60157,-3.60156 z m -18.18164,0.71289 a 2.8878477,2.8878477 0 0 0 -2.88867,2.88867 2.8878477,2.8878477 0 0 0 2.88867,2.88672 2.8878477,2.8878477 0 0 0 2.88672,-2.88672 2.8878477,2.8878477 0 0 0 -2.88672,-2.88867 z m -18.18359,0.74804 a 2.1391463,2.1391463 0 0 0 -2.13867,2.14063 2.1391463,2.1391463 0 0 0 2.13867,2.13867 2.1391463,2.1391463 0 0 0 2.13867,-2.13867 2.1391463,2.1391463 0 0 0 -2.13867,-2.14063 z m -18.18359,0.32227 a 1.8182744,1.8182744 0 0 0 -1.81641,1.81836 1.8182744,1.8182744 0 0 0 1.81641,1.81836 1.8182744,1.8182744 0 0 0 1.81836,-1.81836 1.8182744,1.8182744 0 0 0 -1.81836,-1.81836 z m 109.09765,14.1543 a 5.8470001,5.8470001 0 0 0 -5.84765,5.8457 5.8470001,5.8470001 0 0 0 5.84765,5.84766 5.8470001,5.8470001 0 0 0 5.84766,-5.84766 5.8470001,5.8470001 0 0 0 -5.84766,-5.8457 z m 18.18164,0.0351 a 5.811348,5.811348 0 0 0 -5.81054,5.81055 5.811348,5.811348 0 0 0 5.81054,5.8125 5.811348,5.811348 0 0 0 5.8125,-5.8125 5.811348,5.811348 0 0 0 -5.8125,-5.81055 z m -36.36523,0.0703 a 5.7400432,5.7400432 0 0 0 -5.74024,5.74023 5.7400432,5.7400432 0 0 0 5.74024,5.74023 5.7400432,5.7400432 0 0 0 5.74023,-5.74023 5.7400432,5.7400432 0 0 0 -5.74023,-5.74023 z m 54.54883,0.10742 a 5.6330853,5.6330853 0 0 0 -5.63282,5.63281 5.6330853,5.6330853 0 0 0 5.63282,5.63281 5.6330853,5.6330853 0 0 0 5.63281,-5.63281 5.6330853,5.6330853 0 0 0 -5.63281,-5.63281 z m -72.73047,0.17773 a 5.4548235,5.4548235 0 0 0 -5.45508,5.45508 5.4548235,5.4548235 0 0 0 5.45508,5.45508 5.4548235,5.4548235 0 0 0 5.45508,-5.45508 5.4548235,5.4548235 0 0 0 -5.45508,-5.45508 z M 441.4375,342 a 5.2765608,5.2765608 0 0 0 -5.27734,5.27539 5.2765608,5.2765608 0 0 0 5.27734,5.27734 5.2765608,5.2765608 0 0 0 5.27539,-5.27734 A 5.2765608,5.2765608 0 0 0 441.4375,342 Z m -109.09766,0.35547 a 4.9200368,4.9200368 0 0 0 -4.91992,4.91992 4.9200368,4.9200368 0 0 0 4.91992,4.91992 4.9200368,4.9200368 0 0 0 4.91993,-4.91992 4.9200368,4.9200368 0 0 0 -4.91993,-4.91992 z m 127.2793,0.0351 a 4.8843846,4.8843846 0 0 0 -4.88476,4.88477 4.8843846,4.8843846 0 0 0 4.88476,4.88477 4.8843846,4.8843846 0 0 0 4.88477,-4.88477 4.8843846,4.8843846 0 0 0 -4.88477,-4.88477 z m -145.46094,0.78516 a 4.1000304,4.1000304 0 0 0 -4.10156,4.09961 4.1000304,4.1000304 0 0 0 4.10156,4.09961 4.1000304,4.1000304 0 0 0 4.09961,-4.09961 4.1000304,4.1000304 0 0 0 -4.09961,-4.09961 z m -18.18359,0.92774 a 3.1730671,3.1730671 0 0 0 -3.17383,3.17187 3.1730671,3.1730671 0 0 0 3.17383,3.17383 3.1730671,3.1730671 0 0 0 3.17383,-3.17383 3.1730671,3.1730671 0 0 0 -3.17383,-3.17187 z m -18.18359,0.99804 a 2.1747987,2.1747987 0 0 0 -2.17383,2.17383 2.1747987,2.1747987 0 0 0 2.17383,2.17578 2.1747987,2.1747987 0 0 0 2.17578,-2.17578 2.1747987,2.1747987 0 0 0 -2.17578,-2.17383 z m -18.18164,0.35547 a 1.8182744,1.8182744 0 0 0 -1.81836,1.81836 1.8182744,1.8182744 0 0 0 1.81836,1.81836 1.8182744,1.8182744 0 0 0 1.81835,-1.81836 1.8182744,1.8182744 0 0 0 -1.81835,-1.81836 z m 127.27929,13.44141 a 6.5600486,6.5600486 0 0 0 -6.56055,6.56054 6.5600486,6.5600486 0 0 0 6.56055,6.5586 6.5600486,6.5600486 0 0 0 6.56055,-6.5586 6.5600486,6.5600486 0 0 0 -6.56055,-6.56054 z m 18.18164,0.0351 a 6.5243969,6.5243969 0 0 0 -6.52343,6.52539 6.5243969,6.5243969 0 0 0 6.52343,6.52344 6.5243969,6.5243969 0 0 0 6.52539,-6.52344 6.5243969,6.5243969 0 0 0 -6.52539,-6.52539 z m -36.36523,0.0723 a 6.4530921,6.4530921 0 0 0 -6.45313,6.45312 6.4530921,6.4530921 0 0 0 6.45313,6.45313 6.4530921,6.4530921 0 0 0 6.45312,-6.45313 6.4530921,6.4530921 0 0 0 -6.45312,-6.45312 z m 54.54883,0.10742 a 6.3461342,6.3461342 0 0 0 -6.34571,6.3457 6.3461342,6.3461342 0 0 0 6.34571,6.34571 6.3461342,6.3461342 0 0 0 6.3457,-6.34571 6.3461342,6.3461342 0 0 0 -6.3457,-6.3457 z m -72.73047,0.17774 a 6.1678724,6.1678724 0 0 0 -6.16797,6.16796 6.1678724,6.1678724 0 0 0 6.16797,6.16797 6.1678724,6.1678724 0 0 0 6.16797,-6.16797 6.1678724,6.1678724 0 0 0 -6.16797,-6.16796 z m 90.91406,0.10742 a 6.0609145,6.0609145 0 0 0 -6.0625,6.06054 6.0609145,6.0609145 0 0 0 6.0625,6.06055 6.0609145,6.0609145 0 0 0 6.06055,-6.06055 6.0609145,6.0609145 0 0 0 -6.06055,-6.06054 z m -109.09766,0.24804 a 5.811348,5.811348 0 0 0 -5.81054,5.8125 5.811348,5.811348 0 0 0 5.81054,5.81055 5.811348,5.811348 0 0 0 5.8125,-5.81055 5.811348,5.811348 0 0 0 -5.8125,-5.8125 z m 127.2793,0.17969 a 5.6330853,5.6330853 0 0 0 -5.63281,5.63281 5.6330853,5.6330853 0 0 0 5.63281,5.63282 5.6330853,5.6330853 0 0 0 5.63281,-5.63282 5.6330853,5.6330853 0 0 0 -5.63281,-5.63281 z m -145.46094,0.46289 a 5.1696043,5.1696043 0 0 0 -5.16992,5.16992 5.1696043,5.1696043 0 0 0 5.16992,5.16993 5.1696043,5.1696043 0 0 0 5.16797,-5.16993 5.1696043,5.1696043 0 0 0 -5.16797,-5.16992 z m -18.18359,0.99805 a 4.1713352,4.1713352 0 0 0 -4.17188,4.17187 4.1713352,4.1713352 0 0 0 4.17188,4.16993 4.1713352,4.1713352 0 0 0 4.17187,-4.16993 4.1713352,4.1713352 0 0 0 -4.17187,-4.17187 z m -18.18359,1.17578 a 2.9948049,2.9948049 0 0 0 -2.99414,2.99609 2.9948049,2.9948049 0 0 0 2.99414,2.99414 2.9948049,2.9948049 0 0 0 2.99609,-2.99414 2.9948049,2.9948049 0 0 0 -2.99609,-2.99609 z m -18.18164,0.96289 a 2.0321891,2.0321891 0 0 0 -2.03321,2.0332 2.0321891,2.0321891 0 0 0 2.03321,2.03125 2.0321891,2.0321891 0 0 0 2.03124,-2.03125 2.0321891,2.0321891 0 0 0 -2.03124,-2.0332 z m 127.27929,13.01367 a 7.2017932,7.2017932 0 0 0 -7.20117,7.20117 7.2017932,7.2017932 0 0 0 7.20117,7.20313 7.2017932,7.2017932 0 0 0 7.20117,-7.20313 7.2017932,7.2017932 0 0 0 -7.20117,-7.20117 z m 18.18164,0 a 7.2017932,7.2017932 0 0 0 -7.20117,7.20117 7.2017932,7.2017932 0 0 0 7.20117,7.20313 7.2017932,7.2017932 0 0 0 7.20313,-7.20313 7.2017932,7.2017932 0 0 0 -7.20313,-7.20117 z m -36.36523,0.14258 a 7.0591836,7.0591836 0 0 0 -7.0586,7.05859 7.0591836,7.0591836 0 0 0 7.0586,7.06055 7.0591836,7.0591836 0 0 0 7.06054,-7.06055 7.0591836,7.0591836 0 0 0 -7.06054,-7.05859 z m 54.54883,0.10742 a 6.9522262,6.9522262 0 0 0 -6.95313,6.95117 6.9522262,6.9522262 0 0 0 6.95313,6.95313 6.9522262,6.9522262 0 0 0 6.95312,-6.95313 6.9522262,6.9522262 0 0 0 -6.95312,-6.95117 z m -72.73047,0.17774 a 6.7739635,6.7739635 0 0 0 -6.77539,6.77343 6.7739635,6.7739635 0 0 0 6.77539,6.7754 6.7739635,6.7739635 0 0 0 6.77344,-6.7754 6.7739635,6.7739635 0 0 0 -6.77344,-6.77343 z m 90.91406,0.14258 a 6.6313539,6.6313539 0 0 0 -6.63281,6.63085 6.6313539,6.6313539 0 0 0 6.63281,6.63282 6.6313539,6.6313539 0 0 0 6.63086,-6.63282 6.6313539,6.6313539 0 0 0 -6.63086,-6.63085 z m -109.09766,0.28515 a 6.3461342,6.3461342 0 0 0 -6.3457,6.3457 6.3461342,6.3461342 0 0 0 6.3457,6.34766 6.3461342,6.3461342 0 0 0 6.34571,-6.34766 6.3461342,6.3461342 0 0 0 -6.34571,-6.3457 z m 127.2793,0.17774 a 6.1678724,6.1678724 0 0 0 -6.16797,6.16796 6.1678724,6.1678724 0 0 0 6.16797,6.16797 6.1678724,6.1678724 0 0 0 6.16797,-6.16797 6.1678724,6.1678724 0 0 0 -6.16797,-6.16796 z m 18.18359,0.32226 a 5.8470001,5.8470001 0 0 0 -5.84765,5.8457 5.8470001,5.8470001 0 0 0 5.84765,5.84766 5.8470001,5.8470001 0 0 0 5.84571,-5.84766 5.8470001,5.8470001 0 0 0 -5.84571,-5.8457 z m -163.64453,0.0352 a 5.811348,5.811348 0 0 0 -5.8125,5.81054 5.811348,5.811348 0 0 0 5.8125,5.8125 5.811348,5.811348 0 0 0 5.81055,-5.8125 5.811348,5.811348 0 0 0 -5.81055,-5.81054 z m -18.18359,0.82031 a 4.9913416,4.9913416 0 0 0 -4.99219,4.99023 4.9913416,4.9913416 0 0 0 4.99219,4.99219 4.9913416,4.9913416 0 0 0 4.99219,-4.99219 4.9913416,4.9913416 0 0 0 -4.99219,-4.99023 z m -18.18359,1.24805 a 3.7435062,3.7435062 0 0 0 -3.74219,3.74218 3.7435062,3.7435062 0 0 0 3.74219,3.74415 3.7435062,3.7435062 0 0 0 3.74414,-3.74415 3.7435062,3.7435062 0 0 0 -3.74414,-3.74218 z m -18.18164,1.24804 a 2.4956708,2.4956708 0 0 0 -2.4961,2.49414 2.4956708,2.4956708 0 0 0 2.4961,2.4961 2.4956708,2.4956708 0 0 0 2.49609,-2.4961 2.4956708,2.4956708 0 0 0 -2.49609,-2.49414 z m 127.27929,12.79883 a 7.8791895,7.8791895 0 0 0 -7.8789,7.87891 7.8791895,7.8791895 0 0 0 7.8789,7.8789 7.8791895,7.8791895 0 0 0 7.87891,-7.8789 7.8791895,7.8791895 0 0 0 -7.87891,-7.87891 z m 18.18164,0.0703 a 7.8078847,7.8078847 0 0 0 -7.80664,7.8086 7.8078847,7.8078847 0 0 0 7.80664,7.80664 7.8078847,7.8078847 0 0 0 7.8086,-7.80664 7.8078847,7.8078847 0 0 0 -7.8086,-7.8086 z m -36.36523,0.17774 a 7.6296225,7.6296225 0 0 0 -7.62891,7.63086 7.6296225,7.6296225 0 0 0 7.62891,7.6289 7.6296225,7.6296225 0 0 0 7.63086,-7.6289 7.6296225,7.6296225 0 0 0 -7.63086,-7.63086 z m 54.54883,0.10742 a 7.522665,7.522665 0 0 0 -7.52344,7.52344 7.522665,7.522665 0 0 0 7.52344,7.52148 7.522665,7.522665 0 0 0 7.52343,-7.52148 7.522665,7.522665 0 0 0 -7.52343,-7.52344 z m -72.73047,0.28516 a 7.2374458,7.2374458 0 0 0 -7.23828,7.23828 7.2374458,7.2374458 0 0 0 7.23828,7.23633 7.2374458,7.2374458 0 0 0 7.23633,-7.23633 7.2374458,7.2374458 0 0 0 -7.23633,-7.23828 z m 90.91406,0.17968 a 7.0591836,7.0591836 0 0 0 -7.06055,7.0586 7.0591836,7.0591836 0 0 0 7.06055,7.05859 7.0591836,7.0591836 0 0 0 7.05859,-7.05859 7.0591836,7.0591836 0 0 0 -7.05859,-7.0586 z m -109.09766,0.32032 a 6.7383118,6.7383118 0 0 0 -6.73828,6.73828 6.7383118,6.7383118 0 0 0 6.73828,6.73828 6.7383118,6.7383118 0 0 0 6.73828,-6.73828 6.7383118,6.7383118 0 0 0 -6.73828,-6.73828 z m 127.2793,0.17773 a 6.5600486,6.5600486 0 0 0 -6.56055,6.56055 6.5600486,6.5600486 0 0 0 6.56055,6.56055 6.5600486,6.5600486 0 0 0 6.56055,-6.56055 6.5600486,6.5600486 0 0 0 -6.56055,-6.56055 z m -145.46094,0.35742 a 6.2035246,6.2035246 0 0 0 -6.20508,6.20313 6.2035246,6.2035246 0 0 0 6.20508,6.20312 6.2035246,6.2035246 0 0 0 6.20313,-6.20312 6.2035246,6.2035246 0 0 0 -6.20313,-6.20313 z m 163.64453,0.0352 a 6.1678724,6.1678724 0 0 0 -6.16796,6.16797 6.1678724,6.1678724 0 0 0 6.16796,6.16797 6.1678724,6.1678724 0 0 0 6.16797,-6.16797 6.1678724,6.1678724 0 0 0 -6.16797,-6.16797 z m -181.82812,0.67773 a 5.4904757,5.4904757 0 0 0 -5.49023,5.49024 5.4904757,5.4904757 0 0 0 5.49023,5.49023 5.4904757,5.4904757 0 0 0 5.49023,-5.49023 5.4904757,5.4904757 0 0 0 -5.49023,-5.49024 z m -18.18359,1.17579 a 4.3139453,4.3139453 0 0 0 -4.3125,4.31445 4.3139453,4.3139453 0 0 0 4.3125,4.31445 4.3139453,4.3139453 0 0 0 4.31445,-4.31445 4.3139453,4.3139453 0 0 0 -4.31445,-4.31445 z m -18.18164,1.32031 a 2.9948049,2.9948049 0 0 0 -2.99415,2.99414 2.9948049,2.9948049 0 0 0 2.99415,2.99414 2.9948049,2.9948049 0 0 0 2.99414,-2.99414 2.9948049,2.9948049 0 0 0 -2.99414,-2.99414 z m 127.27929,12.6914 a 8.485281,8.485281 0 0 0 -8.48633,8.48438 8.485281,8.485281 0 0 0 8.48633,8.48633 8.485281,8.485281 0 0 0 8.48438,-8.48633 8.485281,8.485281 0 0 0 -8.48438,-8.48438 z m 18.18164,0.0703 a 8.4139757,8.4139757 0 0 0 -8.41406,8.41406 8.4139757,8.4139757 0 0 0 8.41406,8.41406 8.4139757,8.4139757 0 0 0 8.41407,-8.41406 8.4139757,8.4139757 0 0 0 -8.41407,-8.41406 z m -36.36523,0.32226 a 8.0931044,8.0931044 0 0 0 -8.0918,8.0918 8.0931044,8.0931044 0 0 0 8.0918,8.09375 8.0931044,8.0931044 0 0 0 8.09375,-8.09375 8.0931044,8.0931044 0 0 0 -8.09375,-8.0918 z m 54.54883,0.17774 a 7.9148421,7.9148421 0 0 0 -7.91407,7.91406 7.9148421,7.9148421 0 0 0 7.91407,7.91602 7.9148421,7.9148421 0 0 0 7.91406,-7.91602 7.9148421,7.9148421 0 0 0 -7.91406,-7.91406 z m -72.73047,0.32031 a 7.5939703,7.5939703 0 0 0 -7.59375,7.59375 7.5939703,7.5939703 0 0 0 7.59375,7.5957 7.5939703,7.5939703 0 0 0 7.59375,-7.5957 7.5939703,7.5939703 0 0 0 -7.59375,-7.59375 z m 90.91406,0.21484 a 7.3800554,7.3800554 0 0 0 -7.38086,7.37891 7.3800554,7.3800554 0 0 0 7.38086,7.38086 7.3800554,7.3800554 0 0 0 7.37891,-7.38086 7.3800554,7.3800554 0 0 0 -7.37891,-7.37891 z m -109.09766,0.35547 a 7.023531,7.023531 0 0 0 -7.02343,7.02344 7.023531,7.023531 0 0 0 7.02343,7.02344 7.023531,7.023531 0 0 0 7.02344,-7.02344 7.023531,7.023531 0 0 0 -7.02344,-7.02344 z m 127.2793,0.21485 a 6.8096166,6.8096166 0 0 0 -6.80859,6.80859 6.8096166,6.8096166 0 0 0 6.80859,6.81055 6.8096166,6.8096166 0 0 0 6.81055,-6.81055 6.8096166,6.8096166 0 0 0 -6.81055,-6.80859 z m -145.46094,0.39257 a 6.417439,6.417439 0 0 0 -6.41797,6.41602 6.417439,6.417439 0 0 0 6.41797,6.41797 6.417439,6.417439 0 0 0 6.41602,-6.41797 6.417439,6.417439 0 0 0 -6.41602,-6.41602 z m 163.64453,0 a 6.417439,6.417439 0 0 0 -6.41796,6.41602 6.417439,6.417439 0 0 0 6.41796,6.41797 6.417439,6.417439 0 0 0 6.41602,-6.41797 6.417439,6.417439 0 0 0 -6.41602,-6.41602 z m -181.82812,0.67774 a 5.7400432,5.7400432 0 0 0 -5.74023,5.73828 5.7400432,5.7400432 0 0 0 5.74023,5.74023 5.7400432,5.7400432 0 0 0 5.74023,-5.74023 5.7400432,5.7400432 0 0 0 -5.74023,-5.73828 z m -18.18359,1.10351 a 4.6348171,4.6348171 0 0 0 -4.63477,4.63477 4.6348171,4.6348171 0 0 0 4.63477,4.63476 4.6348171,4.6348171 0 0 0 4.63476,-4.63476 4.6348171,4.6348171 0 0 0 -4.63476,-4.63477 z m -18.18164,1.35547 a 3.2800243,3.2800243 0 0 0 -3.2793,3.2793 3.2800243,3.2800243 0 0 0 3.2793,3.28125 3.2800243,3.2800243 0 0 0 3.27929,-3.28125 3.2800243,3.2800243 0 0 0 -3.27929,-3.2793 z m 127.27929,12.72852 a 8.734848,8.734848 0 0 0 -8.73437,8.73437 8.734848,8.734848 0 0 0 8.73437,8.73438 8.734848,8.734848 0 0 0 8.73438,-8.73438 8.734848,8.734848 0 0 0 -8.73438,-8.73437 z m 18.18164,0.10742 a 8.6278906,8.6278906 0 0 0 -8.62695,8.62695 8.6278906,8.6278906 0 0 0 8.62695,8.62696 8.6278906,8.6278906 0 0 0 8.62891,-8.62696 8.6278906,8.6278906 0 0 0 -8.62891,-8.62695 z m -36.36523,0.39062 a 8.235714,8.235714 0 0 0 -8.23438,8.23633 8.235714,8.235714 0 0 0 8.23438,8.23633 8.235714,8.235714 0 0 0 8.23633,-8.23633 8.235714,8.235714 0 0 0 -8.23633,-8.23633 z m 54.54883,0.17969 a 8.0574522,8.0574522 0 0 0 -8.05664,8.05664 8.0574522,8.0574522 0 0 0 8.05664,8.05664 8.0574522,8.0574522 0 0 0 8.05664,-8.05664 8.0574522,8.0574522 0 0 0 -8.05664,-8.05664 z m -72.73047,0.39063 a 7.6652751,7.6652751 0 0 0 -7.66602,7.66601 7.6652751,7.6652751 0 0 0 7.66602,7.66602 7.6652751,7.6652751 0 0 0 7.66406,-7.66602 7.6652751,7.6652751 0 0 0 -7.66406,-7.66601 z m 90.91406,0.21484 a 7.4513602,7.4513602 0 0 0 -7.45312,7.45117 7.4513602,7.4513602 0 0 0 7.45312,7.45117 7.4513602,7.4513602 0 0 0 7.45117,-7.45117 7.4513602,7.4513602 0 0 0 -7.45117,-7.45117 z m -109.09766,0.39258 a 7.0591836,7.0591836 0 0 0 -7.05859,7.05859 7.0591836,7.0591836 0 0 0 7.05859,7.0586 7.0591836,7.0591836 0 0 0 7.0586,-7.0586 7.0591836,7.0591836 0 0 0 -7.0586,-7.05859 z m 127.2793,0.17773 a 6.8809214,6.8809214 0 0 0 -6.88086,6.88086 6.8809214,6.8809214 0 0 0 6.88086,6.88086 6.8809214,6.8809214 0 0 0 6.88086,-6.88086 6.8809214,6.8809214 0 0 0 -6.88086,-6.88086 z m -145.46094,0.42774 a 6.4530921,6.4530921 0 0 0 -6.45312,6.45312 6.4530921,6.4530921 0 0 0 6.45312,6.45313 6.4530921,6.4530921 0 0 0 6.45313,-6.45313 6.4530921,6.4530921 0 0 0 -6.45313,-6.45312 z m -18.18359,0.67773 a 5.7756953,5.7756953 0 0 0 -5.77539,5.77539 5.7756953,5.7756953 0 0 0 5.77539,5.77539 5.7756953,5.7756953 0 0 0 5.77539,-5.77539 5.7756953,5.7756953 0 0 0 -5.77539,-5.77539 z m -18.18359,1.06836 a 4.7061219,4.7061219 0 0 0 -4.70508,4.70703 4.7061219,4.7061219 0 0 0 4.70508,4.70703 4.7061219,4.7061219 0 0 0 4.70703,-4.70703 4.7061219,4.7061219 0 0 0 -4.70703,-4.70703 z m -18.18164,1.24805 a 3.4582865,3.4582865 0 0 0 -3.45899,3.45898 3.4582865,3.4582865 0 0 0 3.45899,3.45899 3.4582865,3.4582865 0 0 0 3.45898,-3.45899 3.4582865,3.4582865 0 0 0 -3.45898,-3.45898 z m 127.27929,13.40625 a 8.235714,8.235714 0 0 0 -8.23633,8.23633 8.235714,8.235714 0 0 0 8.23633,8.23437 8.235714,8.235714 0 0 0 8.23633,-8.23437 8.235714,8.235714 0 0 0 -8.23633,-8.23633 z m 18.18164,0.0703 a 8.1644087,8.1644087 0 0 0 -8.16406,8.16602 8.1644087,8.1644087 0 0 0 8.16406,8.16406 8.1644087,8.1644087 0 0 0 8.16602,-8.16406 8.1644087,8.1644087 0 0 0 -8.16602,-8.16602 z m -36.36523,0.25 a 7.9148421,7.9148421 0 0 0 -7.91406,7.91602 7.9148421,7.9148421 0 0 0 7.91406,7.91406 7.9148421,7.9148421 0 0 0 7.91601,-7.91406 7.9148421,7.9148421 0 0 0 -7.91601,-7.91602 z m 54.54883,0.14258 a 7.7722321,7.7722321 0 0 0 -7.77149,7.77344 7.7722321,7.7722321 0 0 0 7.77149,7.77148 7.7722321,7.7722321 0 0 0 7.77148,-7.77148 7.7722321,7.7722321 0 0 0 -7.77148,-7.77344 z m -72.73047,0.32031 a 7.4513602,7.4513602 0 0 0 -7.45117,7.45313 7.4513602,7.4513602 0 0 0 7.45117,7.45117 7.4513602,7.4513602 0 0 0 7.45117,-7.45117 7.4513602,7.4513602 0 0 0 -7.45117,-7.45313 z m 90.91406,0.17969 a 7.273098,7.273098 0 0 0 -7.27344,7.27344 7.273098,7.273098 0 0 0 7.27344,7.27148 7.273098,7.273098 0 0 0 7.27148,-7.27148 7.273098,7.273098 0 0 0 -7.27148,-7.27344 z m -109.09766,0.35547 a 6.9165735,6.9165735 0 0 0 -6.91601,6.91797 6.9165735,6.9165735 0 0 0 6.91601,6.91601 6.9165735,6.9165735 0 0 0 6.91602,-6.91601 6.9165735,6.9165735 0 0 0 -6.91602,-6.91797 z m 127.2793,0.0723 a 6.8452687,6.8452687 0 0 0 -6.8457,6.84571 6.8452687,6.8452687 0 0 0 6.8457,6.84375 6.8452687,6.8452687 0 0 0 6.8457,-6.84375 6.8452687,6.8452687 0 0 0 -6.8457,-6.84571 z M 314.1582,450.0254 a 6.3461342,6.3461342 0 0 0 -6.34765,6.34766 6.3461342,6.3461342 0 0 0 6.34765,6.3457 6.3461342,6.3461342 0 0 0 6.34571,-6.3457 6.3461342,6.3461342 0 0 0 -6.34571,-6.34766 z m -18.18359,0.67773 a 5.6687384,5.6687384 0 0 0 -5.66797,5.66993 5.6687384,5.6687384 0 0 0 5.66797,5.66797 5.6687384,5.6687384 0 0 0 5.66797,-5.66797 5.6687384,5.6687384 0 0 0 -5.66797,-5.66993 z m -18.18359,1.14063 a 4.5278597,4.5278597 0 0 0 -4.52735,4.5293 4.5278597,4.5278597 0 0 0 4.52735,4.52734 4.5278597,4.5278597 0 0 0 4.52929,-4.52734 4.5278597,4.5278597 0 0 0 -4.52929,-4.5293 z m -18.18164,0.92773 a 3.6008964,3.6008964 0 0 0 -3.60157,3.60157 3.6008964,3.6008964 0 0 0 3.60157,3.59961 3.6008964,3.6008964 0 0 0 3.60156,-3.59961 3.6008964,3.6008964 0 0 0 -3.60156,-3.60157 z m 127.27929,14.18946 a 7.5939703,7.5939703 0 0 0 -7.59375,7.59375 7.5939703,7.5939703 0 0 0 7.59375,7.59375 7.5939703,7.5939703 0 0 0 7.59375,-7.59375 7.5939703,7.5939703 0 0 0 -7.59375,-7.59375 z m 18.18164,0.0351 a 7.5583177,7.5583177 0 0 0 -7.55664,7.5586 7.5583177,7.5583177 0 0 0 7.55664,7.55859 7.5583177,7.5583177 0 0 0 7.5586,-7.55859 7.5583177,7.5583177 0 0 0 -7.5586,-7.5586 z m -36.36523,0.14258 a 7.4157081,7.4157081 0 0 0 -7.41602,7.41602 7.4157081,7.4157081 0 0 0 7.41602,7.41601 7.4157081,7.4157081 0 0 0 7.41601,-7.41601 7.4157081,7.4157081 0 0 0 -7.41601,-7.41602 z m 54.54883,0.10742 a 7.3087506,7.3087506 0 0 0 -7.3086,7.3086 7.3087506,7.3087506 0 0 0 7.3086,7.30859 7.3087506,7.3087506 0 0 0 7.30859,-7.30859 7.3087506,7.3087506 0 0 0 -7.30859,-7.3086 z m -72.73047,0.25 a 7.0591836,7.0591836 0 0 0 -7.06055,7.0586 7.0591836,7.0591836 0 0 0 7.06055,7.05859 7.0591836,7.0591836 0 0 0 7.05859,-7.05859 7.0591836,7.0591836 0 0 0 -7.05859,-7.0586 z m 90.91406,0.10743 a 6.9522262,6.9522262 0 0 0 -6.95312,6.95117 6.9522262,6.9522262 0 0 0 6.95312,6.95312 6.9522262,6.9522262 0 0 0 6.95117,-6.95312 6.9522262,6.9522262 0 0 0 -6.95117,-6.95117 z m -109.09766,0.35546 a 6.5957017,6.5957017 0 0 0 -6.5957,6.59571 6.5957017,6.5957017 0 0 0 6.5957,6.5957 6.5957017,6.5957017 0 0 0 6.59571,-6.5957 6.5957017,6.5957017 0 0 0 -6.59571,-6.59571 z m -18.18164,0.53516 a 6.0609145,6.0609145 0 0 0 -6.0625,6.06055 6.0609145,6.0609145 0 0 0 6.0625,6.06054 6.0609145,6.0609145 0 0 0 6.06055,-6.06054 6.0609145,6.0609145 0 0 0 -6.06055,-6.06055 z m -18.18359,0.74805 a 5.3122139,5.3122139 0 0 0 -5.3125,5.3125 5.3122139,5.3122139 0 0 0 5.3125,5.3125 5.3122139,5.3122139 0 0 0 5.3125,-5.3125 5.3122139,5.3122139 0 0 0 -5.3125,-5.3125 z m -18.18359,0.99804 a 4.3139453,4.3139453 0 0 0 -4.3125,4.31446 4.3139453,4.3139453 0 0 0 4.3125,4.31445 4.3139453,4.3139453 0 0 0 4.31445,-4.31445 4.3139453,4.3139453 0 0 0 -4.31445,-4.31446 z m 109.09765,15.54493 a 6.9522262,6.9522262 0 0 0 -6.95312,6.95312 6.9522262,6.9522262 0 0 0 6.95312,6.95117 6.9522262,6.9522262 0 0 0 6.95117,-6.95117 6.9522262,6.9522262 0 0 0 -6.95117,-6.95312 z m 18.18164,0.0351 a 6.9165735,6.9165735 0 0 0 -6.91601,6.91797 6.9165735,6.9165735 0 0 0 6.91601,6.91602 6.9165735,6.9165735 0 0 0 6.91797,-6.91602 6.9165735,6.9165735 0 0 0 -6.91797,-6.91797 z m -36.36523,0.10742 a 6.8096166,6.8096166 0 0 0 -6.8086,6.81055 6.8096166,6.8096166 0 0 0 6.8086,6.8086 6.8096166,6.8096166 0 0 0 6.81054,-6.8086 6.8096166,6.8096166 0 0 0 -6.81054,-6.81055 z m 54.54883,0 a 6.8096166,6.8096166 0 0 0 -6.81055,6.81055 6.8096166,6.8096166 0 0 0 6.81055,6.8086 6.8096166,6.8096166 0 0 0 6.81054,-6.8086 6.8096166,6.8096166 0 0 0 -6.81054,-6.81055 z m -72.73047,0.28516 a 6.5243969,6.5243969 0 0 0 -6.52539,6.52539 6.5243969,6.5243969 0 0 0 6.52539,6.52344 6.5243969,6.5243969 0 0 0 6.52344,-6.52344 6.5243969,6.5243969 0 0 0 -6.52344,-6.52539 z m -18.1836,0.39258 a 6.1322193,6.1322193 0 0 0 -6.13281,6.13281 6.1322193,6.1322193 0 0 0 6.13281,6.13086 6.1322193,6.1322193 0 0 0 6.13282,-6.13086 6.1322193,6.1322193 0 0 0 -6.13282,-6.13281 z m -18.18164,0.53515 a 5.5974336,5.5974336 0 0 0 -5.59765,5.59766 5.5974336,5.5974336 0 0 0 5.59765,5.59766 5.5974336,5.5974336 0 0 0 5.59571,-5.59766 5.5974336,5.5974336 0 0 0 -5.59571,-5.59766 z m -18.18359,0.67774 a 4.9200368,4.9200368 0 0 0 -4.91992,4.91992 4.9200368,4.9200368 0 0 0 4.91992,4.91992 4.9200368,4.9200368 0 0 0 4.91992,-4.91992 4.9200368,4.9200368 0 0 0 -4.91992,-4.91992 z m 109.0957,16.61328 a 6.4887438,6.4887438 0 0 0 -6.48828,6.48828 6.4887438,6.4887438 0 0 0 6.48828,6.48828 6.4887438,6.4887438 0 0 0 6.49024,-6.48828 6.4887438,6.4887438 0 0 0 -6.49024,-6.48828 z m -18.18164,0.0723 a 6.417439,6.417439 0 0 0 -6.41797,6.41601 6.417439,6.417439 0 0 0 6.41797,6.41797 6.417439,6.417439 0 0 0 6.41797,-6.41797 6.417439,6.417439 0 0 0 -6.41797,-6.41601 z m -18.18359,0.17773 a 6.2391772,6.2391772 0 0 0 -6.23828,6.23828 6.2391772,6.2391772 0 0 0 6.23828,6.24024 6.2391772,6.2391772 0 0 0 6.24023,-6.24024 6.2391772,6.2391772 0 0 0 -6.24023,-6.23828 z m -18.18164,0.25 a 5.9896097,5.9896097 0 0 0 -5.99024,5.98828 5.9896097,5.9896097 0 0 0 5.99024,5.99024 5.9896097,5.9896097 0 0 0 5.98828,-5.99024 5.9896097,5.9896097 0 0 0 -5.98828,-5.98828 z m -18.1836,0.28516 a 5.70439,5.70439 0 0 0 -5.70312,5.70312 5.70439,5.70439 0 0 0 5.70312,5.70508 5.70439,5.70439 0 0 0 5.70508,-5.70508 5.70439,5.70439 0 0 0 -5.70508,-5.70312 z m -18.18164,0.39062 a 5.3122139,5.3122139 0 0 0 -5.3125,5.3125 5.3122139,5.3122139 0 0 0 5.3125,5.3125 5.3122139,5.3122139 0 0 0 5.31055,-5.3125 5.3122139,5.3122139 0 0 0 -5.31055,-5.3125 z"
         inkscape:path-effect="#path-effect4805"
         id="use9457"
         d="m 386.88867,290.73047 c -1.10109,1.7e-4 -2.0345,0.62299 -2.08958,1.4084 -0.0557,0.78604 0.79114,1.44427 1.90152,1.44962 1.11033,0.005 2.05256,-0.64678 2.10083,-1.44002 0.0488,-0.7928 -0.81163,-1.41783 -1.91277,-1.418 z m -18.1881,0.0499 c -1.06139,5.5e-4 -1.97814,0.59416 -2.05599,1.34553 -0.0774,0.75188 0.71677,1.37466 1.78563,1.37442 1.06962,-5.9e-4 2.00054,-0.62461 2.07258,-1.37593 0.0715,-0.75078 -0.74006,-1.34424 -1.80222,-1.34402 z m -36.37675,0.0846 c -1.00359,4.7e-4 -1.8895,0.61086 -1.99134,1.3817 -0.10091,0.77125 0.62399,1.39463 1.62953,1.38434 1.00551,-0.0102 1.9103,-0.64664 2.00942,-1.40427 0.098,-0.75688 -0.64398,-1.36232 -1.64761,-1.36177 z m 18.18534,-0.007 c -1.00319,2.5e-4 -1.88264,0.57642 -1.97448,1.30558 -0.0909,0.7296 0.64381,1.32599 1.65183,1.32008 1.00797,-0.006 1.90313,-0.60969 1.99063,-1.33149 0.0864,-0.72116 -0.66475,-1.2945 -1.66798,-1.29417 z m 35.31768,12.86228 c -1.79809,-0.029 -3.38619,1.11958 -3.5448,2.59832 -0.1595,1.47901 1.18004,2.73515 3.01256,2.77046 1.83155,0.0351 3.42197,-1.16574 3.5568,-2.65322 0.13573,-1.48788 -1.22707,-2.68636 -3.02456,-2.71556 z m 18.69856,0.49035 c -1.77561,-0.0577 -3.29228,1.07867 -3.38174,2.56452 -0.0887,1.48651 1.29224,2.77722 3.10047,2.84974 1.80868,0.0728 3.32251,-1.10676 3.3896,-2.6123 0.0663,-1.50629 -1.3316,-2.74444 -3.10833,-2.80196 z m 18.64903,0.76673 c -1.74796,-0.0793 -3.19313,1.06878 -3.2195,2.58178 -0.0262,1.51385 1.38392,2.84557 3.15797,2.94417 1.77359,0.0984 3.20957,-1.08105 3.21795,-2.62 0.008,-1.53986 -1.40802,-2.8264 -3.15642,-2.90595 z m -56.04332,-1.26547 c -1.7125,0.005 -3.26917,1.12416 -3.48172,2.5336 -0.21343,1.40935 1.00623,2.57147 2.74607,2.56621 1.74063,-0.005 3.31055,-1.17679 3.50364,-2.58523 0.194,-1.40846 -1.05469,-2.51959 -2.76799,-2.51458 z m -18.63252,0.49265 c -1.52269,0.0322 -2.93891,1.07114 -3.17251,2.34846 -0.23286,1.27702 0.81147,2.29607 2.34976,2.2558 1.53749,-0.0399 2.96964,-1.12034 3.1914,-2.38767 0.22104,-1.26707 -0.84671,-2.24916 -2.36865,-2.21659 z m -18.50293,0.951 c -1.24982,0.0485 -2.42688,0.95285 -2.6398,2.03871 -0.21287,1.08559 0.62214,1.92826 1.87572,1.87183 1.25365,-0.0564 2.44762,-0.98774 2.65675,-2.06237 0.20908,-1.07438 -0.64291,-1.89662 -1.89267,-1.84817 z m -18.24155,1.10873 c -1.05623,0.0541 -2.05065,0.86923 -2.23133,1.83279 -0.18124,0.9634 0.52056,1.69809 1.57316,1.63603 1.052,-0.0624 2.0607,-0.89451 2.2428,-1.84663 0.18267,-0.95197 -0.52929,-1.67577 -1.58463,-1.62219 z m -17.88951,1.07393 c -0.97876,0.0551 -1.88188,0.85841 -2.0285,1.80357 -0.14668,0.945 0.51718,1.66207 1.48559,1.59988 0.96848,-0.0621 1.88718,-0.87796 2.0402,-1.8127 0.15308,-0.93459 -0.51859,-1.64592 -1.49729,-1.59075 z m 90.48488,10.97351 c -1.33975,-0.0306 -2.67586,0.40694 -3.71792,1.2216 -1.04209,0.81471 -1.70894,1.9438 -1.84425,3.14454 -0.13496,1.20054 0.27346,2.37385 1.14605,3.25718 0.87248,0.88322 2.13466,1.40032 3.50511,1.4326 1.37044,0.0325 2.72951,-0.42264 3.77429,-1.26073 1.04486,-0.83815 1.6866,-1.98737 1.7937,-3.18969 0.10679,-1.20255 -0.32927,-2.35897 -1.20235,-3.21875 -0.87317,-0.85988 -2.1147,-1.35631 -3.45463,-1.38675 z m 19.37891,0.71519 c -1.327,-0.0621 -2.6303,0.34481 -3.6254,1.13481 -0.99521,0.79009 -1.60454,1.90242 -1.68386,3.09838 -0.0793,1.19584 0.37868,2.37695 1.28259,3.28023 0.9037,0.90308 2.17607,1.4505 3.5322,1.51709 1.3566,0.0666 2.67895,-0.3537 3.67344,-1.16461 0.99453,-0.81095 1.57728,-1.94347 1.62985,-3.14342 0.0525,-1.20013 -0.4289,-2.36886 -1.32997,-3.25107 -0.90132,-0.88246 -2.15107,-1.40927 -3.47885,-1.47141 z m -38.7373,-0.73392 c -1.28103,0.005 -2.57696,0.4598 -3.60668,1.26886 -1.0297,0.80906 -1.71257,1.91011 -1.89142,3.06552 -0.17879,1.15508 0.16162,2.26957 0.95592,3.09308 0.79432,0.82354 1.97533,1.28562 3.28171,1.28018 1.30667,-0.005 2.62515,-0.47822 3.66119,-1.3096 1.0361,-0.83143 1.70149,-1.9501 1.85708,-3.10506 0.15561,-1.15531 -0.21091,-2.25166 -1.00973,-3.05303 -0.79873,-0.80131 -1.96678,-1.2454 -3.24807,-1.23995 z m 57.99173,2.10088 c -1.23381,-0.0816 -2.42866,0.28369 -3.32184,1.01742 -0.89337,0.73389 -1.41454,1.77897 -1.44055,2.91078 -0.026,1.13165 0.44577,2.25697 1.31767,3.12648 0.87166,0.86927 2.06919,1.40832 3.32394,1.49447 1.25499,0.0867 2.45959,-0.28692 3.34837,-1.03617 0.88871,-0.74919 1.38751,-1.811 1.3944,-2.94742 0.007,-1.13666 -0.47844,-2.25459 -1.34418,-3.10832 -0.86603,-0.85401 -2.04344,-1.37607 -3.27781,-1.45724 z m -77.18002,-1.39758 c -1.15381,0.0358 -2.33523,0.4832 -3.28771,1.249 -0.95246,0.76579 -1.60054,1.78973 -1.7985,2.84972 -0.19763,1.05946 0.0713,2.0679 0.75427,2.79831 0.68315,0.73056 1.72336,1.12134 2.89266,1.08306 1.16881,-0.0385 2.36632,-0.50248 3.32586,-1.2859 0.95956,-0.78343 1.59983,-1.81951 1.78371,-2.87662 0.18372,-1.0576 -0.10389,-2.04909 -0.79291,-2.76204 -0.68881,-0.71274 -1.72427,-1.09112 -2.87738,-1.05553 z m 96.14302,3.07207 c -1.12089,-0.0863 -2.19482,0.24823 -2.98348,0.93061 -0.78894,0.68264 -1.22941,1.65898 -1.21891,2.71904 0.0102,1.05975 0.47064,2.1161 1.28236,2.93569 0.8115,0.81935 1.90562,1.33251 3.03709,1.42315 1.13151,0.0909 2.2049,-0.24809 2.98626,-0.94115 0.78113,-0.69284 1.20605,-1.68226 1.18613,-2.74649 -0.0196,-1.06464 -0.48252,-2.11709 -1.28573,-2.92575 -0.80345,-0.80892 -1.88256,-1.30903 -3.00372,-1.3951 z m -115.00275,-1.71454 c -2.02304,0.11377 -3.96672,1.73672 -4.35563,3.65542 -0.38825,1.91709 0.92878,3.39352 2.96315,3.27534 2.03572,-0.1186 4.00378,-1.7865 4.38396,-3.69745 0.37983,-1.9109 -0.96821,-3.34679 -2.99148,-3.23331 z m -18.34212,1.88311 c -1.56943,0.11766 -3.07755,1.45814 -3.38503,3.01098 -0.30706,1.55155 0.70039,2.71869 2.26086,2.59575 1.56017,-0.12308 3.09133,-1.48798 3.4045,-3.03259 0.31304,-1.54482 -0.71207,-2.69155 -2.28033,-2.57414 z m -17.60504,2.14182 c -1.10961,0.0948 -2.15609,1.10612 -2.35143,2.26732 -0.19569,1.16029 0.52873,2.02566 1.62177,1.92909 1.09336,-0.0971 2.1586,-1.11984 2.36535,-2.276 0.20736,-1.15675 -0.52639,-2.01464 -1.63569,-1.92041 z m -16.59254,1.70713 c -0.88795,0.0719 -1.68338,0.93176 -1.79156,1.92741 -0.10825,0.99556 0.50596,1.7461 1.37267,1.6749 0.86768,-0.0722 1.6823,-0.94103 1.80503,-1.93427 0.1228,-0.99314 -0.49781,-1.73897 -1.38614,-1.66804 z m 108.31425,8.86981 c -1.71505,-0.0397 -3.4217,0.55386 -4.74937,1.65712 -1.32747,1.1031 -2.17095,2.62969 -2.3294,4.24828 -0.15835,1.61952 0.38317,3.19638 1.51788,4.37936 1.13437,1.18266 2.76416,1.86898 4.52255,1.90453 1.75839,0.0359 3.49248,-0.5818 4.8158,-1.71012 1.32363,-1.1286 2.12512,-2.67202 2.24285,-4.2872 0.11748,-1.6143 -0.45681,-3.16915 -1.58431,-4.32602 -1.12781,-1.15719 -2.72072,-1.82663 -4.436,-1.86595 z m 20.11681,0.75476 c -1.69918,-0.0811 -3.36725,0.46612 -4.64108,1.5288 -1.27362,1.06251 -2.05166,2.55704 -2.14681,4.15872 -0.0953,1.60266 0.50188,3.17824 1.67119,4.37587 1.16898,1.1973 2.8086,1.91242 4.54892,1.98684 1.74061,0.0745 3.43102,-0.4979 4.6956,-1.58309 1.26493,-1.08549 1.99894,-2.59266 2.05541,-4.18754 0.0565,-1.59401 -0.56764,-3.14738 -1.72505,-4.32117 -1.15776,-1.17414 -2.75837,-1.8774 -4.45818,-1.95843 z m -40.17746,-0.837 c -1.66665,0.007 -3.3468,0.6356 -4.6754,1.75252 -1.32848,1.11682 -2.20047,2.63486 -2.41192,4.22473 -0.21162,1.59024 0.25582,3.12142 1.31117,4.25283 1.05508,1.13112 2.60833,1.76555 4.31226,1.75835 1.70406,-0.007 3.41099,-0.65523 4.74048,-1.79675 1.32966,-1.14167 2.1691,-2.67916 2.34579,-4.26952 0.17676,-1.58997 -0.32258,-3.10254 -1.37626,-4.20886 -1.05391,-1.10656 -2.57932,-1.72071 -4.24612,-1.7133 z m 60.09172,2.17746 c -1.61933,-0.10953 -3.18971,0.38766 -4.36681,1.38923 -1.177,1.00148 -1.86607,2.42788 -1.90137,3.96884 -0.0351,1.54151 0.58759,3.06753 1.73851,4.23858 1.15061,1.17075 2.72944,1.88477 4.38004,1.98555 1.65057,0.10064 3.23113,-0.42005 4.39347,-1.43941 1.16255,-1.01954 1.81192,-2.45353 1.81806,-3.98481 0.006,-1.53095 -0.63099,-3.03681 -1.76509,-4.18851 -1.13442,-1.15204 -2.67713,-1.85978 -4.29681,-1.96947 z m -79.84143,-1.52583 c -1.54661,0.0498 -3.123,0.68754 -4.38569,1.77708 -1.26269,1.08956 -2.11164,2.54508 -2.35342,4.05091 -0.24193,1.5059 0.14371,2.93939 1.08097,3.98163 0.93714,1.04211 2.34766,1.60515 3.91912,1.5589 1.57165,-0.0461 3.16928,-0.69777 4.43775,-1.80891 1.26845,-1.11112 2.09982,-2.58665 2.31861,-4.09655 0.21892,-1.50977 -0.19199,-2.92916 -1.13305,-3.94999 -0.94114,-1.0209 -2.33762,-1.56296 -3.88429,-1.51307 z m 99.2742,3.33294 c -1.46825,-0.1172 -2.87931,0.33031 -3.92017,1.24985 -1.04097,0.91964 -1.62686,2.23732 -1.61851,3.66661 0.008,1.42992 0.61146,2.8504 1.67827,3.94579 1.06655,1.09512 2.50464,1.77064 3.98963,1.87906 1.48485,0.1083 2.89097,-0.35889 3.91285,-1.29206 1.02175,-0.93305 1.57731,-2.25624 1.55334,-3.67602 -0.0241,-1.41951 -0.62522,-2.82272 -1.67146,-3.90304 -1.04647,-1.08056 -2.45555,-1.75288 -3.92395,-1.87019 z M 323.7082,336.93519 c -1.3423,0.0778 -2.72058,0.68296 -3.83331,1.68446 -1.11286,1.00163 -1.87136,2.31994 -2.10837,3.66913 -0.2369,1.34886 0.067,2.61959 0.84974,3.52936 0.78282,0.90987 1.98053,1.38365 3.33172,1.31126 1.35131,-0.0725 2.74199,-0.68529 3.86399,-1.70286 1.12183,-1.01743 1.87986,-2.35308 2.10894,-3.70798 0.22905,-1.35506 -0.0895,-2.61661 -0.88045,-3.51106 -0.79082,-0.89433 -1.99007,-1.35009 -3.33226,-1.27231 z m 137.12008,3.82593 c -1.29189,-0.10362 -2.52933,0.31121 -3.43314,1.15766 -0.90423,0.84684 -1.39989,2.05605 -1.37217,3.36597 0.0275,1.30978 0.57628,2.60923 1.52185,3.60999 0.94537,1.00054 2.2064,1.61701 3.4987,1.7143 1.29291,0.0976 2.5099,-0.33183 3.39192,-1.18871 0.88147,-0.85633 1.3586,-2.07164 1.33096,-3.37386 -0.0274,-1.3028 -0.55773,-2.58936 -1.48055,-3.57884 -0.92291,-0.98957 -2.165,-1.60304 -3.45757,-1.70651 z m -155.49907,-1.73698 c -1.05822,0.083 -2.14729,0.60246 -3.02774,1.44497 -0.88066,0.8427 -1.48168,1.94049 -1.6753,3.05526 -0.19329,1.11414 0.0362,2.1556 0.63887,2.89189 0.60299,0.73664 1.53103,1.10845 2.5849,1.02948 1.05339,-0.0786 2.14573,-0.6015 3.03593,-1.45367 0.88999,-0.85198 1.50309,-1.96169 1.70131,-3.08103 0.19807,-1.11976 -0.0353,-2.15559 -0.64765,-2.88316 -0.61205,-0.72726 -1.55259,-1.087 -2.61032,-1.00374 z m -17.22437,2.40413 c -1.58316,0.14382 -3.05796,1.69322 -3.3245,3.47128 -0.26637,1.77827 0.76688,3.11839 2.31941,2.98091 1.55322,-0.1367 3.06908,-1.70444 3.35697,-3.49147 0.28745,-1.78568 -0.76941,-3.10533 -2.35188,-2.96072 z m -15.72819,2.43519 c -0.97805,0.0877 -1.84899,1.13248 -1.96822,2.3401 -0.11929,1.20825 0.55087,2.1237 1.50166,2.0402 0.95174,-0.0836 1.85313,-1.13873 1.99111,-2.35059 0.13788,-1.21095 -0.54624,-2.11747 -1.52455,-2.02971 z m -13.85791,1.44788 c -0.71562,0.0448 -1.28655,0.89125 -1.29744,1.89595 -0.0109,1.00469 0.5335,1.78659 1.21906,1.74301 0.68583,-0.0435 1.28534,-0.89788 1.31729,-1.9031 0.032,-1.0052 -0.52357,-1.78074 -1.23891,-1.73586 z m 122.69844,8.05177 c -1.98997,-0.0367 -3.95508,0.68529 -5.46627,2.01499 -1.51093,1.32946 -2.44583,3.16033 -2.5817,5.09207 -0.1356,1.93209 0.54018,3.80315 1.88807,5.19822 1.34747,1.39466 3.25085,2.19293 5.28132,2.21855 2.03051,0.0259 4.01421,-0.72258 5.51193,-2.07186 1.49808,-1.34959 2.38605,-3.18715 2.48406,-5.10733 0.0977,-1.9199 -0.60153,-3.76852 -1.93366,-5.14226 -1.33251,-1.37414 -3.19355,-2.16601 -5.18375,-2.20238 z m 20.79228,0.63546 c -1.97061,-0.0759 -3.89762,0.59589 -5.3597,1.87871 -1.4617,1.28249 -2.33916,3.07254 -2.42113,4.97684 -0.082,1.90466 0.63946,3.76165 2.0133,5.15745 1.37355,1.3955 3.2798,2.20837 5.28867,2.26373 2.00901,0.0554 3.94894,-0.6509 5.39127,-1.95098 1.4428,-1.30052 2.27036,-3.08773 2.31657,-4.96971 0.0462,-1.88173 -0.69184,-3.70979 -2.04405,-5.08602 -1.3525,-1.37652 -3.21391,-2.19407 -5.18493,-2.27002 z m -41.50514,-0.66985 c -1.93136,0.008 -3.85688,0.7621 -5.35566,2.10141 -1.49871,1.33926 -2.45052,3.15689 -2.63237,5.05728 -0.18193,1.90092 0.42217,3.72815 1.68867,5.07827 1.26605,1.34964 3.08702,2.10724 5.05423,2.1008 1.96763,-0.006 3.91303,-0.7764 5.40569,-2.13618 1.49276,-1.35986 2.40744,-3.19454 2.55569,-5.09643 0.14822,-1.90132 -0.48096,-3.71497 -1.73879,-5.04379 -1.25828,-1.32928 -3.0457,-2.06903 -4.97746,-2.06136 z m 62.02032,1.83325 c -1.87377,-0.10351 -3.69057,0.50884 -5.05077,1.71475 -1.35987,1.20562 -2.1509,2.90658 -2.18243,4.72817 -0.0313,1.82225 0.70072,3.60818 2.03903,4.95913 1.33811,1.35074 3.16526,2.14858 5.06872,2.22517 1.90314,0.0763 3.72089,-0.57394 5.05463,-1.79403 1.33412,-1.22044 2.07754,-2.9119 2.08126,-4.70451 0.003,-1.79223 -0.73235,-3.54595 -2.04269,-4.87997 -1.31052,-1.3342 -3.09399,-2.14495 -4.96775,-2.24871 z m -82.29995,-1.2132 c -1.78899,0.0476 -3.58723,0.80423 -5.00046,2.10342 -1.41338,1.29933 -2.32903,3.0382 -2.53785,4.83975 -0.2089,1.80177 0.30664,3.52044 1.4408,4.77793 1.1338,1.25709 2.79199,1.94791 4.6054,1.9118 1.81403,-0.036 3.62891,-0.79645 5.04369,-2.1142 1.4146,-1.31759 2.30929,-3.08036 2.49546,-4.89429 0.18619,-1.8136 -0.35071,-3.52823 -1.48418,-4.76736 -1.13384,-1.23953 -2.77336,-1.90478 -4.56286,-1.85705 z m 102.16079,2.72981 c -1.71457,-0.11393 -3.36762,0.44182 -4.59095,1.55694 -1.22327,1.11506 -1.91451,2.69755 -1.90821,4.39906 0.007,1.70192 0.71074,3.3749 1.95669,4.64541 1.24576,1.27032 2.92398,2.02749 4.65461,2.11307 1.73025,0.0859 3.36761,-0.50558 4.558,-1.63157 1.1904,-1.12601 1.84066,-2.69701 1.81952,-4.36836 -0.0213,-1.67136 -0.71218,-3.31396 -1.92407,-4.5708 -1.21201,-1.25696 -2.85115,-2.03016 -4.56559,-2.14375 z m -121.64225,-1.61759 c -1.6015,0.0772 -3.22,0.81295 -4.49957,2.04258 -1.27988,1.22993 -2.11903,2.85612 -2.33231,4.52725 -0.21329,1.67055 0.2162,3.25308 1.19919,4.39978 0.98286,1.14653 2.43962,1.76351 4.05054,1.70501 1.61182,-0.0584 3.24217,-0.78845 4.53129,-2.03316 1.28878,-1.24438 2.12666,-2.8973 2.33175,-4.58773 0.20524,-1.69079 -0.23933,-3.27706 -1.23041,-4.40996 -0.99128,-1.13313 -2.44821,-1.72115 -4.05048,-1.64377 z m 140.45118,3.33952 c -1.4898,-0.10185 -2.92446,0.40392 -3.97836,1.41586 -1.05429,1.0123 -1.63844,2.44632 -1.61487,3.98863 0.0237,1.54231 0.65335,3.05826 1.74364,4.2105 1.09003,1.15197 2.54554,1.84069 4.03563,1.92114 1.4907,0.0803 2.89242,-0.45343 3.9089,-1.47419 1.01593,-1.0202 1.56888,-2.44771 1.54547,-3.96572 -0.0236,-1.51861 -0.62192,-3.01087 -1.67388,-4.15207 -1.05206,-1.14132 -2.47604,-1.84211 -3.96653,-1.94415 z m -158.80006,-1.60694 c -1.32266,0.0873 -2.6609,0.74891 -3.71991,1.83555 -1.05936,1.08702 -1.75511,2.51232 -1.94041,3.96837 -0.18537,1.45537 0.154,2.82709 0.94569,3.81221 0.79188,0.98536 1.97372,1.50547 3.29127,1.43669 1.31748,-0.0691 2.66141,-0.72188 3.73525,-1.8195 1.07348,-1.09725 1.78565,-2.54623 1.97637,-4.0215 0.19093,-1.47565 -0.15574,-2.85236 -0.96174,-3.82828 -0.80591,-0.97583 -2.00414,-1.47049 -3.32652,-1.38354 z m -16.8473,2.25691 c -0.96191,0.0746 -1.93008,0.60223 -2.69134,1.46417 -0.76152,0.86226 -1.25515,1.98938 -1.38176,3.1378 -0.12627,1.14707 0.12362,2.22566 0.69454,2.99544 0.57137,0.7704 1.41989,1.17177 2.36748,1.1099 0.94734,-0.0616 1.91713,-0.5818 2.69493,-1.44981 0.77756,-0.86774 1.29752,-2.01037 1.43834,-3.17192 0.14073,-1.16254 -0.11022,-2.24462 -0.69817,-3.01038 -0.58762,-0.76534 -1.46232,-1.15008 -2.42402,-1.0752 z m -14.89752,2.38035 c -1.24961,0.0988 -2.32496,1.53669 -2.44592,3.21574 -0.12112,1.67798 0.74402,2.97693 1.95278,2.89179 1.21004,-0.0849 2.34532,-1.53002 2.49556,-3.22521 0.15054,-1.69566 -0.75301,-2.98146 -2.00242,-2.88232 z m -12.48707,1.87124 c -0.69273,0.0416 -1.23662,0.98356 -1.24458,2.10735 -0.008,1.12299 0.51379,2.00474 1.17715,1.96553 0.6632,-0.0392 1.24685,-0.9858 1.27569,-2.11181 0.0289,-1.12673 -0.51634,-2.00268 -1.20826,-1.96107 z m 121.94246,9.58323 c -2.23818,-0.0233 -4.42406,0.82014 -6.07626,2.35314 -1.65208,1.5329 -2.63413,3.63002 -2.71506,5.8312 -0.0812,2.20203 0.74674,4.32294 2.30418,5.89284 1.55714,1.5696 3.71013,2.45377 5.97578,2.46012 2.26579,0.006 4.45377,-0.86578 6.08422,-2.41306 1.63062,-1.54744 2.57064,-3.64307 2.62551,-5.82609 0.0551,-2.18223 -0.77827,-4.2789 -2.31214,-5.8325 -1.53415,-1.55388 -3.64785,-2.44196 -5.88623,-2.46565 z m 21.29744,0.35867 c -2.22647,-0.051 -4.39084,0.75337 -6.01588,2.25011 -1.62472,1.49644 -2.57425,3.56155 -2.62316,5.73889 -0.0491,2.1782 0.80774,4.28161 2.38262,5.84098 1.5748,1.55927 3.7306,2.43944 5.98302,2.45592 2.25245,0.0167 4.41274,-0.83074 6.00781,-2.33966 1.59546,-1.50931 2.49786,-3.55792 2.52216,-5.6989 0.0245,-2.14022 -0.83002,-4.20668 -2.37365,-5.75094 -1.54371,-1.54434 -3.65623,-2.44564 -5.88292,-2.4964 z M 358.9025,372.9665 c -2.16032,0.007 -4.2801,0.86498 -5.89206,2.38816 -1.61213,1.52334 -2.58516,3.58824 -2.69354,5.74506 -0.10866,2.15757 0.65729,4.22965 2.13311,5.76071 1.47532,1.53055 3.53606,2.39096 5.72071,2.38702 2.18569,-0.004 4.31174,-0.87185 5.91189,-2.41009 1.59999,-1.53809 2.54135,-3.61783 2.62672,-5.77759 0.0856,-2.15902 -0.69071,-4.22301 -2.15246,-5.73832 -1.46223,-1.51581 -3.493,-2.36176 -5.65437,-2.35495 z m 63.46,1.14856 c -2.09312,-0.0701 -4.12031,0.66703 -5.63223,2.0663 -1.51156,1.39894 -2.37986,3.34303 -2.39812,5.40042 -0.0182,2.05818 0.81624,4.04982 2.31732,5.52872 1.50111,1.47892 3.53717,2.31627 5.64972,2.34141 2.11204,0.0257 4.12426,-0.7614 5.59844,-2.16954 1.47457,-1.40851 2.29534,-3.32612 2.2952,-5.33641 -2e-4,-2.00968 -0.82057,-3.95854 -2.28313,-5.42495 -1.46251,-1.46637 -3.45437,-2.33636 -5.5472,-2.40595 z m -84.13312,-0.62337 c -1.99862,0.0326 -3.96751,0.87622 -5.472,2.34111 -1.50488,1.46527 -2.42434,3.4344 -2.5499,5.48119 -0.12587,2.04734 0.55306,4.00774 1.89167,5.45275 1.3381,1.44445 3.2254,2.25389 5.24125,2.23969 2.01646,-0.0139 3.99236,-0.85069 5.4944,-2.32963 1.50162,-1.47852 2.40323,-3.47442 2.51263,-5.54132 0.10964,-2.06628 -0.5811,-4.03243 -1.91502,-5.46371 -1.33447,-1.43187 -3.20386,-2.21294 -5.20303,-2.18008 z m 104.30965,1.72281 c -1.89833,-0.0779 -3.73378,0.59174 -5.09493,1.87883 -1.36101,1.28696 -2.1311,3.08263 -2.12683,4.98792 0.004,1.90591 0.78274,3.75286 2.15876,5.127 1.37599,1.37411 3.22799,2.15554 5.13669,2.1874 1.90813,0.0321 3.71433,-0.68606 5.02986,-1.97904 1.31564,-1.29308 2.03959,-3.06005 2.02555,-4.91658 -0.0138,-1.85616 -0.76407,-3.66189 -2.09384,-5.0262 -1.32978,-1.36431 -3.13731,-2.18168 -5.03526,-2.25933 z m -124.02977,-0.79024 c -1.7625,0.0517 -3.50213,0.84912 -4.83515,2.20879 -1.33348,1.36014 -2.15443,3.17447 -2.28254,5.05194 -0.12842,1.87774 0.44653,3.67089 1.60277,4.98877 1.15589,1.31748 2.80009,2.05294 4.57005,2.03126 1.77091,-0.022 3.51949,-0.8003 4.86137,-2.1719 1.34136,-1.37106 2.16218,-3.21882 2.28345,-5.12797 0.12156,-1.90872 -0.46603,-3.71758 -1.62937,-5.02511 -1.16377,-1.30803 -2.80728,-2.00728 -4.57058,-1.95578 z m 142.95507,2.08423 c -1.63137,-0.0716 -3.21118,0.52977 -4.37878,1.68606 -1.16791,1.15661 -1.82239,2.7696 -1.80791,4.48283 0.0144,1.71327 0.6967,3.37407 1.88662,4.61253 1.18965,1.23818 2.7821,1.94647 4.41328,1.98187 1.63176,0.0355 3.16746,-0.60358 4.28341,-1.76338 1.11551,-1.15934 1.72758,-2.75053 1.71355,-4.42384 -0.014,-1.67366 -0.65323,-3.30378 -1.79078,-4.53515 -1.13776,-1.2316 -2.68736,-1.9693 -4.31939,-2.04092 z m 17.19328,1.06796 c -1.37768,-0.0564 -2.72242,0.50706 -3.71786,1.57611 -0.99641,1.0701 -1.55596,2.5539 -1.5456,4.12901 0.0105,1.57517 0.59012,3.10028 1.59622,4.23949 1.00544,1.13845 2.3486,1.79261 3.71631,1.82684 1.36913,0.0341 2.65057,-0.55347 3.58412,-1.62616 0.93232,-1.07128 1.44904,-2.54732 1.44823,-4.09648 -9.6e-4,-1.54969 -0.5197,-3.05665 -1.46248,-4.18875 -0.94333,-1.13278 -2.23987,-1.80348 -3.61894,-1.86006 z M 300.18058,375.6518 c -1.47758,0.0592 -2.9346,0.78335 -4.05087,2.00406 -1.11664,1.22111 -1.80473,2.84222 -1.91957,4.51392 -0.11492,1.67161 0.35237,3.26469 1.30325,4.43097 0.95089,1.16628 2.3111,1.81349 3.78603,1.78598 1.47509,-0.0274 2.94243,-0.72809 4.07755,-1.95788 1.13469,-1.22933 1.84016,-2.88291 1.95786,-4.58876 0.11778,-1.70568 -0.36199,-3.31696 -1.33086,-4.47653 -0.96904,-1.15975 -2.34573,-1.77103 -3.82339,-1.71176 z m -16.51982,1.60903 c -1.12026,0.0534 -2.21867,0.66013 -3.05606,1.67961 -0.83752,1.01966 -1.34867,2.37154 -1.43201,3.76301 -0.0832,1.39103 0.26746,2.71563 0.97843,3.68114 0.71139,0.96608 1.72923,1.49846 2.83897,1.47013 1.10954,-0.0279 2.22005,-0.61499 3.08324,-1.64052 0.863,-1.0253 1.4046,-2.40167 1.49824,-3.82068 0.0936,-1.4191 -0.26889,-2.75721 -1.00589,-3.71962 -0.73678,-0.96213 -1.78483,-1.46691 -2.90492,-1.41307 z m -14.25822,1.99807 c -1.47055,0.0738 -2.67371,1.84383 -2.75619,3.95066 -0.0395,1.01292 0.18876,1.97823 0.63677,2.67941 0.44858,0.7021 1.08372,1.08673 1.77564,1.06463 0.69156,-0.0223 1.38403,-0.45019 1.92057,-1.19365 0.53658,-0.74352 0.87123,-1.73971 0.92229,-2.76744 0.051,-1.02797 -0.18624,-1.99754 -0.65843,-2.69811 -0.47175,-0.69993 -1.13723,-1.07061 -1.84065,-1.0355 z m -11.48814,1.80808 c -0.7571,0.0323 -1.33782,1.17441 -1.34229,2.55251 -0.004,1.37876 0.56281,2.47905 1.29582,2.45313 0.73332,-0.0255 1.37797,-1.17068 1.39903,-2.55856 0.0207,-1.38699 -0.59584,-2.47984 -1.35256,-2.44708 z m 121.62198,11.95284 c -2.48069,-0.002 -4.87244,0.96082 -6.64243,2.68536 -1.7702,1.72475 -2.76945,4.06675 -2.76906,6.51137 5.7e-4,2.44444 1.00082,4.78508 2.77313,6.50363 1.77229,1.71852 4.16614,2.66979 6.64886,2.6497 2.48292,-0.0203 4.85148,-1.00951 6.59272,-2.73957 1.74106,-1.72987 2.71505,-4.06067 2.71297,-6.48046 -0.002,-2.41999 -0.98036,-4.73826 -2.72338,-6.44945 -1.74301,-1.71118 -4.11189,-2.67813 -6.59281,-2.68058 z m 21.563,0.12971 c -2.44383,-0.008 -4.80219,0.92514 -6.54908,2.61074 -1.74682,1.68553 -2.73267,3.98034 -2.73009,6.37566 0.003,2.39477 0.99341,4.68297 2.74431,6.35393 1.75116,1.67122 4.11178,2.58238 6.55637,2.54666 2.44457,-0.0359 4.7732,-1.01454 6.48188,-2.70302 1.70882,-1.68861 2.6631,-3.95278 2.66028,-6.29973 -0.003,-2.34752 -0.96314,-4.59724 -2.67609,-6.26234 -1.71266,-1.66481 -4.04369,-2.61338 -6.48758,-2.6219 z m -43.02452,0.16685 c -2.36347,0.004 -4.63982,0.94662 -6.32225,2.6196 -1.68292,1.67348 -2.6326,3.93956 -2.63424,6.30469 -0.002,2.36458 0.94434,4.63377 2.62603,6.30985 1.68135,1.67574 3.95803,2.619 6.32359,2.61856 2.3668,-2.8e-4 4.62846,-0.94463 6.29455,-2.62374 1.66559,-1.6786 2.59951,-3.95402 2.59961,-6.32152 2.5e-4,-2.36809 -0.93358,-4.63672 -2.59791,-6.3064 -1.66464,-1.67001 -3.9247,-2.60521 -6.28938,-2.60104 z m 64.21837,0.25611 c -2.28781,-0.0139 -4.49908,0.85675 -6.13861,2.44042 -1.63932,1.58349 -2.56482,3.74431 -2.56141,6.0002 0.004,2.25538 0.93537,4.40691 2.57928,5.97205 1.64428,1.56549 3.85754,2.40969 6.14517,2.36593 2.287,-0.0433 4.4614,-0.96909 6.05386,-2.55284 1.59272,-1.584 2.48044,-3.70211 2.47761,-5.8961 -0.003,-2.19447 -0.89655,-4.29925 -2.49397,-5.8603 -1.59708,-1.56072 -3.77464,-2.45589 -6.06193,-2.46936 z m -85.09944,0.25638 c -2.15564,0.008 -4.22901,0.89861 -5.75943,2.46887 -1.53103,1.57088 -2.3948,3.69375 -2.39911,5.90932 -0.004,2.21507 0.85111,4.34522 2.37725,5.92685 1.52563,1.5811 3.59735,2.48437 5.75506,2.50052 2.15852,0.0161 4.2254,-0.85683 5.75121,-2.43299 1.52512,-1.57545 2.38263,-3.72301 2.38537,-5.96276 0.003,-2.24029 -0.84991,-4.38694 -2.3701,-5.96341 -1.52073,-1.57704 -3.58382,-2.45394 -5.74025,-2.4464 z m 105.43503,0.39665 c -2.03269,-0.0172 -4.00247,0.76863 -5.46456,2.20438 -1.46202,1.43568 -2.28848,3.39747 -2.28574,5.44678 0.003,2.04925 0.83512,4.00272 2.30094,5.42268 1.46599,1.42013 3.43729,2.18391 5.46948,2.14354 2.03151,-0.0401 3.95741,-0.87892 5.36506,-2.31245 1.40777,-1.43366 2.19053,-3.3517 2.18836,-5.33944 -0.003,-1.98777 -0.7898,-3.89703 -2.2014,-5.31464 -1.4115,-1.41751 -3.33998,-2.23392 -5.37214,-2.25085 z m -125.26979,0.26476 c -1.88034,0.01 -3.68455,0.82542 -5.01417,2.25591 -1.33016,1.43106 -2.07996,3.3626 -2.08646,5.37814 -0.006,2.01547 0.73091,3.9572 2.05307,5.40458 1.3217,1.44687 3.1225,2.28316 5.00472,2.31065 1.88335,0.0275 3.69249,-0.75732 5.03109,-2.19323 1.33795,-1.43522 2.0927,-3.40066 2.09753,-5.455 0.005,-2.05442 -0.74066,-4.0234 -2.07048,-5.46726 -1.33037,-1.44447 -3.13387,-2.2433 -5.0153,-2.23379 z m 144.24686,0.44325 c -1.73475,-0.0194 -3.42311,0.68145 -4.67799,1.96457 -1.25516,1.28341 -1.96616,3.03784 -1.96408,4.87277 0.002,1.83496 0.71649,3.58506 1.97383,4.86141 1.25707,1.27607 2.94603,1.96794 4.67992,1.94122 1.73444,-0.0265 3.37126,-0.76776 4.56484,-2.04644 1.1933,-1.27838 1.8546,-2.99708 1.85334,-4.78189 -0.001,-1.78471 -0.66451,-3.5034 -1.86005,-4.77958 -1.19594,-1.27661 -2.83437,-2.01294 -4.56981,-2.03206 z m -162.56243,0.25793 c -1.57332,0.009 -3.07705,0.73933 -4.1829,2.01716 -1.10609,1.2781 -1.72823,3.0032 -1.73564,4.80233 -0.007,1.79909 0.60088,3.53443 1.69711,4.82988 1.09603,1.2952 2.59471,2.0484 4.16898,2.07921 1.57458,0.0312 3.09411,-0.66368 4.22144,-1.94525 1.12692,-1.28111 1.76544,-3.04003 1.77203,-4.88201 0.006,-1.84201 -0.61969,-3.60754 -1.73668,-4.90179 -1.11735,-1.29467 -2.63075,-2.00875 -4.20434,-1.99953 z m 179.67725,0.3702 c -1.43979,-0.023 -2.8518,0.61101 -3.90372,1.77274 -1.05277,1.16267 -1.65173,2.75188 -1.65097,4.41832 7.1e-4,1.66658 0.60103,3.2591 1.65427,4.42997 1.05231,1.16984 2.4642,1.81683 3.90312,1.81169 1.44072,-0.005 2.78956,-0.66091 3.76974,-1.8162 0.97932,-1.15427 1.51908,-2.7219 1.51905,-4.35612 10e-6,-1.63399 -0.5398,-3.21412 -1.51964,-4.38655 -0.98094,-1.17377 -2.33011,-1.8509 -3.77185,-1.87385 z m -196.01805,0.50398 c -1.2158,0.008 -2.37037,0.63223 -3.21681,1.72493 -0.84626,1.09247 -1.32011,2.56857 -1.32659,4.10619 -0.006,1.53757 0.45508,3.02127 1.29193,4.12715 0.83704,1.10614 1.98603,1.74899 3.20164,1.77555 1.21543,0.0264 2.3961,-0.56681 3.27464,-1.6613 0.87852,-1.09447 1.37888,-2.59645 1.38558,-4.17119 0.007,-1.57476 -0.48105,-3.08362 -1.35016,-4.1908 -0.8691,-1.10717 -2.04464,-1.71811 -3.26023,-1.71053 z m -13.90522,1.3186 c -0.78767,0.005 -1.52951,0.47886 -2.07132,1.31035 -0.54136,0.8308 -0.84233,1.95582 -0.84583,3.12554 -0.004,1.16967 0.29035,2.29739 0.82579,3.13328 0.53591,0.83663 1.27361,1.31773 2.06026,1.3317 0.7861,0.0137 1.55559,-0.44181 2.12969,-1.27333 0.57441,-0.83199 0.90312,-1.96842 0.90757,-3.15964 0.005,-1.19124 -0.31537,-2.33155 -0.88393,-3.17031 -0.56823,-0.83826 -1.33513,-1.30267 -2.12223,-1.29759 z m -10.99622,1.42481 c -0.85495,0.009 -1.50065,1.36062 -1.50107,3.0131 -7e-5,1.65238 0.64426,2.99433 1.49612,2.99671 0.85186,0.002 1.58489,-1.34152 1.58747,-3.00944 0.002,-1.66784 -0.72773,-3.00895 -1.58252,-3.00037 z m 121.7792,14.67786 c -2.67286,0.0242 -5.21498,1.08424 -7.05329,2.95288 -1.83894,1.86929 -2.81604,4.38746 -2.71799,7.00046 0.098,2.61237 1.26208,5.09868 3.21613,6.90902 1.95442,1.81069 4.53583,2.79569 7.176,2.74669 2.64005,-0.0489 5.12957,-1.12696 6.93577,-2.98902 1.8056,-1.86145 2.78535,-4.35926 2.71831,-6.94476 -0.067,-2.58611 -1.17618,-5.05624 -3.09918,-6.87184 -1.92255,-1.81517 -4.5031,-2.82766 -7.17575,-2.80343 z m 21.56273,-0.20433 c -2.6338,0.0449 -5.15564,1.10084 -6.99611,2.95037 -1.84081,1.84986 -2.83939,4.33293 -2.77551,6.8979 0.0638,2.56394 1.18342,4.98757 3.09023,6.73081 1.9075,1.74386 4.44096,2.66148 7.04249,2.56809 2.6012,-0.0933 5.06411,-1.18877 6.86157,-3.02967 1.79721,-1.84064 2.78945,-4.2828 2.75639,-6.7946 -0.033,-2.51268 -1.08966,-4.90203 -2.95524,-6.65124 -1.86484,-1.74851 -4.39048,-2.71662 -7.02382,-2.67166 z m -43.01347,0.76449 c -2.50778,5.6e-4 -4.87625,0.99315 -6.57358,2.75584 -1.69813,1.76353 -2.58248,4.14947 -2.46156,6.63765 0.12109,2.48781 1.23702,4.87313 3.08856,6.63343 1.85148,1.76025 4.28666,2.7518 6.76872,2.75553 2.48332,0.004 4.81552,-0.98146 6.49584,-2.73961 1.67951,-1.75729 2.57217,-4.14609 2.47555,-6.63716 -0.0968,-2.49153 -1.17564,-4.88346 -3.0104,-6.64867 -1.83476,-1.76521 -4.27409,-2.75737 -6.78313,-2.75701 z m 64.20074,-0.63325 c -2.40516,0.057 -4.72329,1.04071 -6.43021,2.75414 -1.70703,1.71355 -2.6523,4.00709 -2.62442,6.36819 0.0278,2.36066 1.02564,4.5806 2.75352,6.16326 1.72854,1.58325 4.03934,2.39561 6.42074,2.27988 2.38085,-0.11616 4.64191,-1.14928 6.29881,-2.8534 1.65691,-1.70412 2.58278,-3.94751 2.57725,-6.24461 -0.005,-2.29725 -0.94207,-4.475 -2.62146,-6.06326 -1.67878,-1.58767 -3.96969,-2.46067 -6.37423,-2.4042 z m -85.06197,1.11005 c -2.26286,-0.023 -4.38535,0.87876 -5.89388,2.49607 -1.50928,1.61812 -2.2809,3.81909 -2.14889,6.12579 0.13158,2.30665 1.15608,4.53428 2.84184,6.19871 1.68538,1.66406 3.8958,2.63067 6.14299,2.67893 2.24837,0.0482 4.3525,-0.82671 5.85745,-2.44081 1.50411,-1.6132 2.28604,-3.83365 2.16856,-6.16626 -0.11703,-2.33279 -1.12406,-4.58413 -2.80581,-6.25308 -1.68212,-1.66932 -3.89817,-2.6162 -6.16226,-2.63935 z m 105.37793,-1.04415 c -2.123,0.0572 -4.18314,0.95176 -5.71223,2.50602 -1.52919,1.55437 -2.39166,3.63219 -2.39043,5.7678 0.001,2.13551 0.86594,4.13781 2.38581,5.55996 1.52019,1.42245 3.56439,2.14383 5.67439,2.02778 2.10941,-0.11611 4.11433,-1.05815 5.58614,-2.60145 1.47189,-1.54336 2.29934,-3.56982 2.31006,-5.64215 0.0106,-2.07199 -0.7962,-4.03541 -2.2596,-5.46396 -1.46328,-1.42842 -3.4717,-2.21111 -5.59414,-2.154 z m -125.1859,1.39168 c -1.96161,-0.0412 -3.78877,0.75801 -5.07861,2.20699 -1.29031,1.44952 -1.94041,3.43258 -1.81161,5.51981 0.12885,2.08724 1.02643,4.11528 2.49691,5.64597 1.46998,1.53018 3.39586,2.44098 5.35256,2.51987 1.95775,0.0789 3.78671,-0.68175 5.08665,-2.12778 1.29931,-1.44532 1.96152,-3.4561 1.83705,-5.58288 -0.12454,-2.12703 -1.02551,-4.18941 -2.5055,-5.72506 -1.48053,-1.53621 -3.41474,-2.41567 -5.37745,-2.45692 z m 144.14128,-1.29355 c -1.79914,0.0453 -3.55648,0.83793 -4.86878,2.21858 -1.31259,1.38096 -2.06338,3.22895 -2.0756,5.13067 -0.0122,1.90208 0.71526,3.68651 2.00776,4.95926 1.29219,1.27245 3.03683,1.92454 4.83481,1.83276 1.79887,-0.0918 3.504,-0.91881 4.75317,-2.28648 1.2491,-1.36759 1.94882,-3.17194 1.9616,-5.02313 0.0127,-1.8502 -0.66192,-3.61007 -1.89086,-4.89095 -1.2296,-1.28156 -2.92187,-1.98603 -4.7221,-1.94071 z m -162.43311,1.4956 c -1.62963,-0.0512 -3.13729,0.64524 -4.19711,1.92072 -1.05983,1.27549 -1.58991,3.0301 -1.47849,4.88188 0.11169,1.85265 0.85683,3.66053 2.08044,5.0339 1.22321,1.37292 2.82897,2.20287 4.46444,2.29451 1.63567,0.0914 3.16542,-0.56407 4.24807,-1.83692 1.0824,-1.27256 1.62597,-3.05538 1.50828,-4.95098 -0.11789,-1.8951 -0.88662,-3.73885 -2.13247,-5.11706 -1.24632,-1.37874 -2.86328,-2.17462 -4.49316,-2.22605 z m 179.54481,-1.43664 c -1.49914,0.0186 -2.97344,0.72328 -4.07808,1.96748 -1.10526,1.24491 -1.74203,2.92033 -1.75294,4.65398 -0.0107,1.73461 0.60577,3.36996 1.70134,4.55266 1.09439,1.18144 2.57132,1.80875 4.08131,1.75999 1.51143,-0.049 2.93027,-0.7688 3.95993,-1.99594 1.02931,-1.22674 1.59385,-2.86866 1.59373,-4.56904 -3.1e-4,-1.69845 -0.56441,-3.33011 -1.58296,-4.52385 -1.02024,-1.19573 -2.42138,-1.86369 -3.92233,-1.84528 z m -195.87243,1.5919 c -1.27462,-0.0502 -2.44657,0.5471 -3.27045,1.64732 -0.82332,1.09948 -1.23724,2.61795 -1.15597,4.22012 0.0817,1.60356 0.65316,3.17036 1.60362,4.362 0.9503,1.19143 2.20623,1.91438 3.495,1.99959 1.28854,0.0853 2.50103,-0.47541 3.35931,-1.57217 0.85852,-1.09707 1.2885,-2.63639 1.193,-4.27799 -0.0958,-1.64071 -0.70822,-3.23909 -1.69292,-4.43656 -0.98493,-1.19775 -2.25724,-1.89227 -3.53159,-1.94231 z m -13.91159,0.58021 c -0.85239,-0.0357 -1.63435,0.43467 -2.1888,1.29989 -0.55354,0.8638 -0.83972,2.05783 -0.80005,3.31238 0.0397,1.25586 0.40299,2.47932 1.02549,3.4039 0.62263,0.92477 1.45716,1.4786 2.32582,1.53467 0.86777,0.056 1.695,-0.39122 2.28541,-1.25189 0.59106,-0.86159 0.89299,-2.0619 0.83736,-3.34074 -0.0556,-1.278 -0.46346,-2.52088 -1.12234,-3.45194 -0.65881,-0.93096 -1.51144,-1.47055 -2.36289,-1.50627 z m -11.09213,0.96145 c -0.94826,-0.0258 -1.67011,1.43037 -1.66901,3.23972 9.5e-4,1.81011 0.73572,3.3043 1.71988,3.34413 0.98348,0.039 1.79613,-1.39802 1.76968,-3.22597 -0.0263,-1.82721 -0.8718,-3.33131 -1.82055,-3.35788 z m 122.41498,17.42557 c -2.71711,0.0516 -5.2665,1.14213 -7.06867,3.03337 -1.80309,1.89225 -2.70175,4.42043 -2.51297,7.0264 0.18894,2.60434 1.44719,5.06644 3.46782,6.84514 2.02128,1.77927 4.64126,2.73273 7.29014,2.66235 2.64924,-0.0707 5.12442,-1.15928 6.8998,-3.02572 1.77452,-1.86554 2.71129,-4.36393 2.58725,-6.94712 -0.1244,-2.58474 -1.30167,-5.04868 -3.29882,-6.85189 -1.99629,-1.8025 -4.64734,-2.79382 -7.36455,-2.74253 z m 21.28688,-0.47926 c -2.66659,0.0992 -5.19905,1.21018 -7.02048,3.09827 -1.82211,1.88886 -2.77182,4.38813 -2.65228,6.94228 0.12004,2.55245 1.29674,4.93944 3.23936,6.63359 1.94347,1.6949 4.49369,2.5601 7.09528,2.42312 2.60198,-0.13698 5.05545,-1.26491 6.83923,-3.12851 1.78315,-1.86297 2.75942,-4.31791 2.70144,-6.82905 -0.0586,-2.51247 -1.14852,-4.88553 -3.05699,-6.6027 -1.90745,-1.7163 -4.47905,-2.63618 -7.14556,-2.537 z m -42.44946,1.23818 c -2.52357,-0.003 -4.86237,0.97742 -6.4883,2.72021 -1.62683,1.74381 -2.40241,4.10107 -2.16934,6.55477 0.2326,2.45253 1.45306,4.7995 3.3717,6.52828 1.91886,1.72899 4.38189,2.70215 6.85177,2.70931 2.47094,0.007 4.75763,-0.95303 6.37137,-2.67455 1.61287,-1.72061 2.42542,-4.06723 2.24319,-6.52267 -0.18195,-2.4567 -1.34553,-4.82224 -3.25427,-6.57318 -1.90839,-1.75069 -4.40145,-2.73858 -6.92612,-2.74217 z m 63.38275,-1.54219 c -2.42099,0.12601 -4.74664,1.17679 -6.44716,2.93489 -1.70094,1.75859 -2.62519,4.06871 -2.57559,6.41431 0.0501,2.34427 1.06781,4.51868 2.80214,6.04182 1.73503,1.52375 4.0427,2.27179 6.41657,2.09964 2.37374,-0.1726 4.6286,-1.25068 6.28412,-2.9867 1.6552,-1.7357 2.58442,-3.99587 2.57921,-6.28976 -0.006,-2.29463 -0.94644,-4.44722 -2.6385,-5.98973 -1.69135,-1.54189 -4.00033,-2.34998 -6.42079,-2.22447 z m -83.9944,1.93822 c -2.26534,-0.0533 -4.34037,0.80539 -5.76154,2.3754 -1.42186,1.57082 -2.07219,3.72228 -1.81813,5.98411 0.25357,2.26128 1.39019,4.45088 3.14915,6.09326 1.75881,1.64224 3.9997,2.60688 6.23149,2.67938 2.2322,0.0724 4.27988,-0.75331 5.70084,-2.30585 1.42025,-1.55177 2.09972,-3.70637 1.87707,-5.98766 -0.22228,-2.28206 -1.32942,-4.50119 -3.08942,-6.16231 -1.76011,-1.6613 -4.02351,-2.62282 -6.28946,-2.67633 z m 104.10908,-2.42785 c -2.12735,0.1287 -4.19232,1.09139 -5.72379,2.68989 -1.53176,1.59885 -2.39334,3.69203 -2.39397,5.81046 -5.2e-4,2.1177 0.85877,4.07339 2.36796,5.4352 1.50943,1.36204 3.54179,2.01762 5.64423,1.8423 2.10222,-0.17486 4.10774,-1.16519 5.5878,-2.74289 1.48,-1.57762 2.3216,-3.6213 2.34533,-5.68927 0.0236,-2.06789 -0.77273,-4.00334 -2.23196,-5.38222 -1.45918,-1.37888 -3.46867,-2.09258 -5.5956,-1.96347 z m -123.75134,2.43427 c -1.9651,-0.0891 -3.74589,0.65007 -4.95155,2.04076 -1.20592,1.39106 -1.74005,3.32093 -1.4916,5.36761 0.24878,2.04692 1.26031,4.04898 2.81252,5.57388 1.55179,1.5245 3.52111,2.45089 5.4748,2.56942 1.95427,0.11824 3.73586,-0.58165 4.95377,-1.9585 1.21752,-1.37642 1.77167,-3.3179 1.53335,-5.39544 -0.23867,-2.07776 -1.25027,-4.1155 -2.81516,-5.65586 -1.56531,-1.5408 -3.55014,-2.45234 -5.51613,-2.54187 z m 142.61281,-2.9866 c -1.81682,0.10743 -3.59474,0.96562 -4.92667,2.39595 -1.33222,1.43066 -2.0999,3.30763 -2.12491,5.21002 -0.025,1.90245 0.69447,3.6612 1.98582,4.89212 1.29092,1.23051 3.04364,1.83034 4.85861,1.68549 1.81569,-0.14494 3.54619,-1.02173 4.82089,-2.43045 1.27481,-1.40883 1.99673,-3.24119 2.02273,-5.10279 0.026,-1.8604 -0.64549,-3.60985 -1.87943,-4.85788 -1.23484,-1.24896 -2.93938,-1.8999 -4.75704,-1.79246 z m -160.87357,2.63634 c -1.64775,-0.1077 -3.12836,0.52662 -4.12526,1.74914 -0.9966,1.22221 -1.43238,2.93637 -1.21484,4.76475 0.21766,1.82944 1.07227,3.63131 2.38662,5.01815 1.31382,1.38629 2.9833,2.24729 4.64043,2.38652 1.6573,0.13927 3.16551,-0.45552 4.18578,-1.66664 1.02033,-1.21118 1.4673,-2.93834 1.23979,-4.80135 -0.22745,-1.86257 -1.1099,-3.70085 -2.44755,-5.10056 -1.33815,-1.40029 -3.01689,-2.2423 -4.66497,-2.35001 z m -16.47633,-0.4826 c -1.30777,-0.1043 -2.4781,0.43901 -3.27022,1.49834 -0.79122,1.05811 -1.14553,2.55152 -0.98543,4.14574 0.16044,1.59622 0.82412,3.17152 1.86423,4.3883 1.0396,1.21619 2.37334,1.97668 3.70755,2.10856 1.33375,0.13166 2.55437,-0.37718 3.37903,-1.42624 0.82522,-1.04978 1.18364,-2.55096 0.99721,-4.17671 -0.18644,-1.62465 -0.90102,-3.23237 -1.97339,-4.46043 -1.0728,-1.22856 -2.41161,-1.97312 -3.71898,-2.07756 z m -14.28679,-0.0764 c -0.90404,-0.0745 -1.71809,0.36521 -2.28223,1.21479 -0.56288,0.84768 -0.83564,2.04229 -0.75657,3.31005 0.0789,1.27023 0.50488,2.51809 1.2052,3.47602 0.7,0.95748 1.61891,1.54804 2.55551,1.63946 0.93594,0.0913 1.80743,-0.32517 2.4054,-1.16566 0.59888,-0.84179 0.87141,-2.03476 0.76037,-3.32365 -0.11052,-1.28723 -0.59412,-2.55765 -1.32811,-3.52517 -0.73423,-0.96783 -1.65629,-1.55138 -2.55957,-1.62584 z m -11.7901,0.38736 c -1.08858,-0.063 -1.93586,1.44877 -1.93445,3.35811 9.9e-4,1.90937 0.87385,3.50462 2.04044,3.57994 1.16514,0.076 2.08968,-1.4058 2.0339,-3.33012 -0.0553,-1.92442 -1.05005,-3.5456 -2.13989,-3.60793 z m 123.50385,20.25293 c -2.4972,0.0674 -4.81314,1.06637 -6.42127,2.77254 -1.6089,1.70699 -2.36909,3.97096 -2.1369,6.28765 0.23223,2.31502 1.43437,4.48831 3.31144,6.04832 1.87753,1.5604 4.28321,2.38748 6.6976,2.3125 2.41487,-0.0747 4.6588,-1.04575 6.25358,-2.70889 1.59408,-1.66241 2.41613,-3.88984 2.26206,-6.19636 -0.1544,-2.30817 -1.27504,-4.5081 -3.14365,-6.11149 -1.8678,-1.60269 -4.32571,-2.472 -6.82286,-2.40427 z m 20.73815,-0.76895 c -2.46086,0.13245 -4.78081,1.17966 -6.43046,2.91131 -1.65038,1.7324 -2.48404,3.99525 -2.33856,6.28355 0.14498,2.28654 1.25375,4.40422 3.05032,5.89327 1.79704,1.48943 4.14043,2.23513 6.52241,2.08764 2.38292,-0.14721 4.62611,-1.17671 6.25265,-2.8681 1.62581,-1.69063 2.5098,-3.91357 2.4386,-6.18306 -0.0709,-2.27109 -1.09359,-4.40726 -2.87163,-5.93628 -1.7772,-1.52829 -4.16239,-2.32115 -6.62333,-2.18833 z m -41.37817,1.3732 c -2.37028,-0.007 -4.53255,0.88581 -5.99952,2.47212 -1.46761,1.587 -2.11414,3.73091 -1.81834,5.95528 0.29552,2.22316 1.50661,4.34307 3.34429,5.90011 1.83797,1.55728 4.15884,2.43136 6.46085,2.43998 2.30267,0.009 4.41333,-0.84897 5.87835,-2.39532 1.46452,-1.54581 2.16951,-3.66149 1.9381,-5.88642 -0.23142,-2.22629 -1.38261,-4.37862 -3.22254,-5.97653 -1.83946,-1.59751 -4.21021,-2.50275 -6.58119,-2.50922 z m 61.8151,-2.27918 c -2.28581,0.17176 -4.47404,1.20277 -6.06528,2.86947 -1.59183,1.66731 -2.445,3.82204 -2.38565,5.98287 0.0592,2.15934 1.02326,4.13961 2.65266,5.51093 1.62966,1.37155 3.79463,2.02684 6.02146,1.8358 2.22749,-0.19149 4.34674,-1.21447 5.9064,-2.84692 1.55907,-1.63185 2.43811,-3.74718 2.43401,-5.88429 -0.004,-2.13814 -0.89232,-4.12935 -2.49346,-5.53366 -1.60067,-1.40391 -3.78452,-2.10553 -6.07014,-1.9342 z m -81.99198,2.41158 c -2.16487,-0.0736 -4.10977,0.6982 -5.40248,2.13465 -1.29303,1.43681 -1.82596,3.41706 -1.4971,5.50085 0.32833,2.08321 1.49027,4.10058 3.21862,5.61509 1.72837,1.51454 3.88729,2.40808 6.00791,2.49048 2.12068,0.0823 4.0401,-0.65295 5.34031,-2.05527 1.3,-1.40211 1.87825,-3.36225 1.59082,-5.45475 -0.28708,-2.09335 -1.41776,-4.14482 -3.15662,-5.69436 -1.7388,-1.54948 -3.93613,-2.46291 -6.10146,-2.53669 z m 101.74132,-3.50565 c -2.0476,0.17866 -4.03352,1.15011 -5.50502,2.70455 -1.47193,1.55491 -2.29889,3.5554 -2.30323,5.5542 -0.004,1.99784 0.81323,3.82155 2.2518,5.07627 1.43842,1.2546 3.38142,1.84031 5.39745,1.64113 2.01651,-0.19957 3.94803,-1.16786 5.38105,-2.69318 1.43272,-1.52502 2.25556,-3.48822 2.28905,-5.46295 0.0331,-1.97482 -0.72635,-3.80664 -2.12807,-5.0882 -1.40196,-1.28177 -3.33553,-1.91012 -5.38303,-1.73182 z m -121.11319,3.12675 c -1.9123,-0.12243 -3.60846,0.53499 -4.71929,1.81607 -1.11071,1.28093 -1.54628,3.08041 -1.21986,4.99772 0.32624,1.91757 1.38782,3.79921 2.95163,5.23827 1.56358,1.43884 3.50544,2.32138 5.40145,2.45702 1.89576,0.13533 3.59557,-0.48711 4.72259,-1.74092 1.12718,-1.25399 1.5909,-3.04005 1.27916,-4.97161 -0.31154,-1.93178 -1.37342,-3.84659 -2.95517,-5.3136 -1.58201,-1.46725 -3.54787,-2.36018 -5.46051,-2.48295 z m 139.82289,-4.32595 c -1.80608,0.15349 -3.57356,1.04438 -4.89989,2.47895 -1.32661,1.43487 -2.09515,3.28782 -2.13027,5.14359 -0.0348,1.85568 0.66588,3.5534 1.936,4.72851 1.26939,1.17445 3.00302,1.73092 4.80708,1.55897 1.80516,-0.17183 3.53522,-1.05795 4.81666,-2.46472 1.28156,-1.4069 2.01416,-3.2238 2.05025,-5.05911 0.0358,-1.83408 -0.62733,-3.54411 -1.8524,-4.74369 -1.22624,-1.20074 -2.92034,-1.79632 -4.72743,-1.6425 z M 303.104,454.63512 c -1.6351,-0.14733 -3.0738,0.41389 -4.01178,1.54951 -0.93731,1.13482 -1.30073,2.75361 -1.01262,4.49304 0.28803,1.74066 1.20521,3.4641 2.56163,4.7992 1.35595,1.33463 3.04236,2.17374 4.6883,2.33444 1.64512,0.16091 3.11508,-0.36959 4.07625,-1.48397 0.96173,-1.11503 1.33546,-2.72362 1.03586,-4.47936 -0.29922,-1.75522 -1.2467,-3.50885 -2.62693,-4.86526 -1.38067,-1.35685 -3.07614,-2.20062 -4.71071,-2.3476 z m -16.76927,-0.96397 c -1.32651,-0.14108 -2.49371,0.34224 -3.2641,1.33509 -0.76918,0.99128 -1.0838,2.41556 -0.87114,3.94893 0.21287,1.5356 0.93753,3.06004 2.0356,4.24719 1.09739,1.18642 2.47908,1.93877 3.83912,2.09279 1.35911,0.15351 2.58074,-0.30446 3.37977,-1.28061 0.79999,-0.97731 1.10969,-2.39153 0.86392,-3.94077 -0.24547,-1.54799 -1.02503,-3.09897 -2.15153,-4.3023 -1.12703,-1.20389 -2.5058,-1.95889 -3.83164,-2.10032 z m -14.97799,-0.46728 c -0.93454,-0.0989 -1.77005,0.29384 -2.34246,1.08658 -0.57101,0.7908 -0.83719,1.92189 -0.73332,3.13192 0.1039,1.21261 0.5711,2.4099 1.32066,3.33697 0.74892,0.92629 1.71883,1.50584 2.69359,1.61249 0.97417,0.10682 1.86763,-0.26889 2.46646,-1.04937 0.59993,-0.78192 0.85306,-1.90186 0.70988,-3.12316 -0.14278,-1.21965 -0.66885,-2.43639 -1.44435,-3.37479 -0.77595,-0.93897 -1.73667,-1.52205 -2.67046,-1.62064 z m -13.02501,-0.28141 c -1.29303,-0.0926 -2.32416,1.46143 -2.32392,3.4507 4.6e-4,1.98855 1.06633,3.66087 2.47347,3.76203 1.40502,0.10176 2.48927,-1.41571 2.41004,-3.41128 -0.0795,-1.99659 -1.2646,-3.70939 -2.55959,-3.80145 z m 124.86559,21.97632 c -2.22065,0.0693 -4.26504,0.93192 -5.67293,2.38669 -1.40821,1.4551 -2.05688,3.37352 -1.83057,5.32143 0.22639,1.94754 1.30639,3.76266 2.97803,5.06062 1.67143,1.29778 3.80903,1.98312 5.95118,1.91935 2.14271,-0.0639 4.13399,-0.87266 5.54341,-2.26748 1.4092,-1.3946 2.12823,-3.27026 1.97461,-5.22303 -0.15377,-1.95303 -1.16962,-3.82043 -2.84836,-5.17868 -1.67842,-1.358 -3.87477,-2.08812 -6.09537,-2.0189 z m 19.99761,-0.90937 c -2.19893,0.13778 -4.26212,1.06381 -5.72213,2.56389 -1.46051,1.50058 -2.18933,3.44181 -2.05072,5.38718 0.13841,1.94484 1.13012,3.73219 2.73111,4.98536 1.60054,1.25282 3.69012,1.87965 5.81419,1.75291 2.12574,-0.12718 4.12977,-0.99964 5.58247,-2.4453 1.45209,-1.44505 2.24019,-3.35272 2.17073,-5.30739 -0.0693,-1.95502 -0.99236,-3.79502 -2.5907,-5.10307 -1.59813,-1.30788 -3.73556,-1.97102 -5.93495,-1.83358 z m -39.93905,1.36682 c -2.15034,-0.008 -4.09314,0.76067 -5.39576,2.12623 -1.30267,1.36562 -1.85311,3.20864 -1.55529,5.11033 0.29764,1.90168 1.41684,3.70445 3.09322,5.02304 1.67636,1.31857 3.78263,2.05459 5.86561,2.06239 2.08275,0.008 3.98931,-0.71286 5.30228,-2.0198 1.31322,-1.30719 1.93198,-3.1027 1.69643,-5.00446 -0.23536,-1.90174 -1.30742,-3.75104 -2.99958,-5.12842 -1.69193,-1.3772 -3.85674,-2.16136 -6.00691,-2.16931 z m 59.71244,-2.60295 c -2.08709,0.18104 -4.08024,1.12498 -5.52669,2.61499 -1.447,1.49058 -2.22012,3.39534 -2.16666,5.28831 0.0535,1.89251 0.92703,3.61597 2.40569,4.80781 1.47801,1.19131 3.44863,1.76246 5.47851,1.59392 2.03166,-0.16877 3.96982,-1.06551 5.40016,-2.51109 1.42957,-1.44479 2.23884,-3.32555 2.23787,-5.2296 -0.001,-1.90413 -0.81355,-3.67485 -2.27911,-4.91125 -1.46569,-1.2365 -3.46234,-1.83408 -5.54977,-1.65309 z m -79.31787,2.53965 c -2.00245,-0.079 -3.78161,0.58419 -4.94757,1.83433 -1.16567,1.24982 -1.62012,2.9795 -1.28242,4.79472 0.33812,1.81573 1.43931,3.56705 3.05261,4.87674 1.61336,1.30976 3.61396,2.07766 5.57135,2.1511 1.95609,0.0736 3.72183,-0.55217 4.90477,-1.75111 1.18362,-1.19963 1.69272,-2.88213 1.39631,-4.69316 -0.29667,-1.81058 -1.37557,-3.59857 -3.01026,-4.95919 -1.63463,-1.36057 -3.68304,-2.17461 -5.68479,-2.25343 z m 98.59042,-3.99927 c -1.92169,0.19169 -3.78322,1.11178 -5.16214,2.54981 -1.37941,1.43855 -2.15587,3.26922 -2.16612,5.08405 -0.0102,1.81507 0.74551,3.46351 2.08467,4.59837 1.33826,1.13411 3.15566,1.66814 5.04676,1.4877 1.89268,-0.18063 3.7121,-1.06241 5.06781,-2.46624 1.35511,-1.4032 2.13827,-3.21664 2.17575,-5.04224 0.0374,-1.82469 -0.67397,-3.51281 -1.9909,-4.6813 -1.31762,-1.1691 -3.13371,-1.72184 -5.05583,-1.53015 z m -117.61499,3.39363 c -1.80514,-0.13037 -3.38867,0.43582 -4.41088,1.56673 -1.0215,1.13014 -1.39816,2.73068 -1.05811,4.43562 0.34028,1.70605 1.36916,3.3766 2.86224,4.64999 1.49311,1.27341 3.33217,2.0494 5.12003,2.17203 1.7864,0.12254 3.38229,-0.41719 4.42674,-1.50749 1.04546,-1.09135 1.45697,-2.64955 1.132,-4.34848 -0.32478,-1.69801 -1.35967,-3.39538 -2.87797,-4.70877 -1.51841,-1.31349 -3.38947,-2.12931 -5.19405,-2.25963 z M 306.418,473.64898 c -1.57796,-0.15583 -2.95439,0.33179 -3.84166,1.35059 -0.88616,1.01752 -1.21283,2.48359 -0.91066,4.06146 0.30271,1.57974 1.21032,3.1425 2.53516,4.34969 1.32466,1.20702 2.95908,1.96069 4.54734,2.10738 1.58634,0.14682 2.99793,-0.32425 3.90956,-1.31312 0.9129,-0.99024 1.25201,-2.42022 0.93861,-3.99177 -0.3133,-1.57013 -1.25294,-3.15125 -2.60355,-4.38706 -1.35089,-1.23606 -2.99815,-2.02178 -4.5748,-2.17717 z m -17.15525,-1.09836 c -1.2951,-0.14602 -2.4309,0.2745 -3.17669,1.16598 -0.74438,0.88979 -1.04132,2.18019 -0.82059,3.57327 0.22099,1.39556 0.94318,2.78102 2.02655,3.85758 1.0829,1.07609 2.43731,1.75404 3.7646,1.89336 1.32582,0.13932 2.51268,-0.27112 3.28216,-1.14248 0.77084,-0.87289 1.0602,-2.13563 0.80749,-3.52493 -0.25224,-1.3874 -1.0248,-2.78614 -2.13199,-3.88111 -1.10761,-1.09537 -2.45759,-1.79594 -3.75153,-1.94167 z m -15.92696,-0.80004 c -0.96877,-0.10305 -1.83765,0.25525 -2.43397,0.99415 -0.59489,0.73712 -0.8722,1.79771 -0.76195,2.93582 0.11028,1.14075 0.60081,2.26761 1.38338,3.13953 0.78191,0.8712 1.79029,1.41419 2.79952,1.5146 1.00846,0.10008 1.92991,-0.25105 2.54538,-0.97713 0.61671,-0.72755 0.87486,-1.76904 0.72503,-2.90692 -0.14933,-1.13582 -0.69313,-2.27362 -1.49428,-3.15659 -0.80166,-0.88351 -1.79506,-1.44025 -2.76311,-1.54346 z m 111.61423,21.14421 c -1.95181,0.0557 -3.74865,0.75851 -4.99422,1.93576 -1.24516,1.17686 -1.83101,2.72332 -1.65506,4.28017 0.17609,1.5577 1.09724,2.99826 2.54683,4.02864 1.4482,1.02938 3.3215,1.57757 5.2111,1.5387 1.89007,-0.0389 3.66181,-0.66273 4.92236,-1.76249 1.26114,-1.10026 1.91404,-2.59493 1.79392,-4.17026 -0.1201,-1.57442 -1.00484,-3.09372 -2.47546,-4.20135 -1.47121,-1.10807 -3.39805,-1.70478 -5.34947,-1.64917 z m 19.19497,-0.80277 c -1.93439,0.11136 -3.74927,0.87444 -5.03964,2.10025 -1.2904,1.22584 -1.94449,2.80589 -1.84147,4.37921 0.10283,1.57396 0.95215,3.01462 2.34547,4.03269 1.39148,1.01674 3.22816,1.54122 5.10392,1.46394 1.87841,-0.0772 3.66016,-0.75248 4.95708,-1.90978 1.29665,-1.15704 2.00632,-2.7073 1.95582,-4.31616 -0.0503,-1.60826 -0.85805,-3.13559 -2.26233,-4.22288 -1.40511,-1.08792 -3.28352,-1.63889 -5.21885,-1.52727 z m -38.36364,1.17243 c -1.90292,-0.007 -3.62255,0.61952 -4.78537,1.72768 -1.16198,1.10737 -1.66713,2.59855 -1.4296,4.12286 0.23772,1.52536 1.19646,2.95708 2.65625,3.99772 1.45908,1.04014 3.31249,1.61512 5.16127,1.62039 1.8482,0.005 3.55919,-0.55971 4.74587,-1.5909 1.18811,-1.03242 1.76168,-2.45628 1.57281,-3.98061 -0.18874,-1.52312 -1.12567,-3.01721 -2.61596,-4.13399 -1.49067,-1.11706 -3.40266,-1.75639 -5.30527,-1.76315 z m 57.42168,-2.39169 c -1.88271,0.14928 -3.68014,0.95505 -4.98789,2.21783 -1.30812,1.26314 -2.01409,2.87288 -1.97922,4.46736 0.0349,1.59491 0.80587,3.04797 2.12892,4.06804 1.321,1.0185 3.09889,1.53297 4.93578,1.42782 1.84012,-0.10492 3.60236,-0.82382 4.90754,-2.03165 1.30429,-1.20699 2.04623,-2.80691 2.05216,-4.44727 0.006,-1.63987 -0.72594,-3.17816 -2.04872,-4.25429 -1.32386,-1.077 -3.1247,-1.59767 -5.00857,-1.44784 z m -76.40105,2.2687 c -1.80114,-0.0648 -3.40369,0.48345 -4.46531,1.51625 -1.06041,1.03163 -1.48996,2.45777 -1.21442,3.9405 0.27576,1.48394 1.23226,2.89985 2.65667,3.94653 1.42438,1.04665 3.2086,1.64604 4.9723,1.69197 1.76102,0.0459 3.37181,-0.464 4.46161,-1.42862 1.0918,-0.96639 1.57965,-2.31772 1.3376,-3.78339 -0.2418,-1.46425 -1.19465,-2.92069 -2.65331,-4.0339 -1.45883,-1.11333 -3.2956,-1.78465 -5.09514,-1.84934 z m -18.65031,-0.59036 c -1.65888,-0.10672 -3.11953,0.37431 -4.07557,1.33476 -0.95455,0.95894 -1.3252,2.31536 -1.04322,3.74744 0.28247,1.43347 1.19338,2.82173 2.5372,3.86386 1.34421,1.04242 3.01538,1.65729 4.65853,1.73502 1.64011,0.0778 3.12671,-0.386 4.11294,-1.29248 0.98848,-0.90854 1.40029,-2.19279 1.13185,-3.59764 -0.26836,-1.40331 -1.19559,-2.81209 -2.57435,-3.90619 -1.37876,-1.09409 -3.09026,-1.77844 -4.74738,-1.88477 z m -18.17921,-0.88665 c -1.4726,-0.12518 -2.76623,0.30087 -3.61421,1.18563 -0.84636,0.88306 -1.17834,2.15125 -0.92715,3.50488 0.25142,1.35548 1.0655,2.68256 2.27416,3.69043 1.20907,1.00821 2.71415,1.61522 4.19357,1.70938 1.47597,0.0936 2.80821,-0.33146 3.68337,-1.17904 0.87732,-0.84966 1.22806,-2.05703 0.96928,-3.38117 -0.2583,-1.32224 -1.10492,-2.65417 -2.3436,-3.69687 -1.23862,-1.04264 -2.76499,-1.70788 -4.23542,-1.83324 z m -17.60427,-0.96518 c -1.24984,-0.11674 -2.35774,0.26588 -3.09835,1.06638 -0.73902,0.79878 -1.05188,1.95044 -0.86638,3.18487 0.18586,1.23645 0.85571,2.45257 1.87699,3.38175 1.02137,0.92927 2.30879,1.49389 3.58296,1.58521 1.27179,0.0911 2.42476,-0.29746 3.18689,-1.0755 0.76395,-0.77989 1.07478,-1.88734 0.86521,-3.098 -0.20932,-1.20881 -0.92139,-2.42329 -1.96535,-3.37265 -1.04402,-0.9494 -2.33385,-1.55542 -3.58197,-1.67206 z m 112.49179,17.19866 c -1.75143,0.0572 -3.40536,0.64515 -4.60175,1.60191 -1.19569,0.9562 -1.83273,2.19711 -1.78965,3.43085 0.0434,1.23645 0.76238,2.37115 1.99502,3.19538 1.22862,0.82154 2.89103,1.2822 4.60671,1.28229 1.71992,2.6e-4 3.37139,-0.46278 4.58624,-1.33356 1.21511,-0.87099 1.89575,-2.08269 1.8812,-3.3788 -0.0148,-1.29363 -0.72415,-2.55215 -1.979,-3.46294 -1.2572,-0.91249 -2.94562,-1.39258 -4.69877,-1.33513 z m -18.49511,0.51041 c -1.73552,0.0279 -3.34976,0.56191 -4.49915,1.45931 -1.14784,0.89619 -1.73237,2.07536 -1.64727,3.25099 0.0856,1.17878 0.83292,2.25984 2.0762,3.03951 1.24014,0.7777 2.8945,1.20566 4.59258,1.20539 1.69928,-9e-5 3.32513,-0.42962 4.50253,-1.23145 1.17933,-0.80313 1.81917,-1.92053 1.76379,-3.12877 -0.0555,-1.20506 -0.80174,-2.39175 -2.07942,-3.26606 -1.27963,-0.87564 -2.97369,-1.357 -4.70926,-1.32892 z m -18.487,0.26294 c -1.68546,-0.003 -3.23055,0.48044 -4.31366,1.32926 -1.08089,0.84707 -1.60654,1.98257 -1.48396,3.1244 0.12287,1.14491 0.88297,2.20084 2.11502,2.95955 1.23032,0.75766 2.84766,1.1682 4.50022,1.16843 1.65104,2.6e-4 3.2233,-0.40981 4.34264,-1.16429 1.12273,-0.75676 1.7088,-1.8059 1.6124,-2.94845 -0.0961,-1.13921 -0.8667,-2.27233 -2.14306,-3.12323 -1.27765,-0.85177 -2.94513,-1.34227 -4.6296,-1.34567 z m -18.42462,-0.017 c -1.61217,-0.0319 -3.07326,0.41319 -4.08452,1.23107 -1.00863,0.81577 -1.48072,1.93107 -1.33232,3.06639 0.14895,1.13813 0.90524,2.19855 2.10788,2.96086 1.2024,0.76217 2.76301,1.17204 4.35159,1.17343 1.58399,0.001 3.08354,-0.40456 4.13456,-1.13874 1.05521,-0.7371 1.58428,-1.7527 1.45453,-2.86058 -0.12955,-1.10464 -0.90725,-2.2092 -2.158,-3.05209 -1.25126,-0.84323 -2.86437,-1.34837 -4.47372,-1.38034 z m -18.32503,-0.28245 c -1.52535,-0.0521 -2.8983,0.37052 -3.84157,1.17699 -0.94056,0.80416 -1.37158,1.92123 -1.21321,3.07268 0.15887,1.15391 0.89343,2.24176 2.05056,3.02732 1.15798,0.78614 2.64877,1.20996 4.16283,1.21413 1.50892,0.004 2.92947,-0.40995 3.91377,-1.14945 0.9886,-0.74273 1.46737,-1.75962 1.31734,-2.86511 -0.14979,-1.10249 -0.91606,-2.20476 -2.12164,-3.05396 -1.20537,-0.84906 -2.74563,-1.37045 -4.26808,-1.4226 z m -18.17495,-0.40453 c -1.40885,-0.0617 -2.67719,0.34699 -3.54966,1.14372 -0.86999,0.79446 -1.27137,1.90848 -1.12395,3.06869 0.1475,1.16201 0.83126,2.26917 1.91125,3.07417 1.08126,0.80595 2.47112,1.24464 3.88156,1.2517 1.4048,0.007 2.72134,-0.41618 3.62905,-1.16618 0.91144,-0.75308 1.34418,-1.77867 1.1941,-2.88538 -0.14962,-1.1044 -0.86994,-2.20316 -1.99076,-3.05151 -1.12019,-0.84789 -2.54642,-1.37336 -3.95159,-1.43521 z"
         style="fill:url(#linearGradient4825);fill-opacity:1;stroke:#cccccc;stroke-width:0.19999999" />
      <g
         transform="matrix(0.30544698,0,0,0.30544698,-12.995594,258.70827)"
         id="text972-0"
         style="font-style:normal;font-variant:normal;font-weight:normal;font-stretch:normal;font-size:86.80477142px;line-height:1.25;font-family:sans-serif;-inkscape-font-specification:'sans-serif, Normal';font-variant-ligatures:normal;font-variant-caps:normal;font-variant-numeric:normal;font-feature-settings:normal;text-align:start;letter-spacing:0px;word-spacing:0px;writing-mode:lr-tb;text-anchor:start;opacity:0.71100003;fill:#000000;fill-opacity:1;stroke:#000000;stroke-width:1.85208333;stroke-miterlimit:4;stroke-dasharray:none;stroke-opacity:1"
         aria-label="BOSProject">
        <path
           inkscape:connector-curvature="0"
           id="path974-5"
           style="stroke:#000000;stroke-width:1.85208333;stroke-miterlimit:4;stroke-dasharray:none;stroke-opacity:1"
           d="m 76.18284,78.147687 v 23.184673 h 13.732786 q 6.908778,0 10.214824,-2.839804 3.34842,-2.88219 3.34842,-8.773725 0,-5.93392 -3.34842,-8.731339 -3.306046,-2.839805 -10.214824,-2.839805 z m 0,-26.024477 v 19.073314 h 12.673157 q 6.273001,0 9.324732,-2.331183 3.094111,-2.373568 3.094111,-7.205474 0,-4.789521 -3.094111,-7.163089 -3.051731,-2.373568 -9.324732,-2.373568 z m -8.561799,-7.035934 h 21.870733 q 9.790968,0 15.089116,4.068974 5.29814,4.068974 5.29814,11.571144 0,5.806764 -2.71265,9.239961 -2.71265,3.433196 -7.968408,4.280899 6.315388,1.356325 9.790968,5.679609 3.51797,4.2809 3.51797,10.723441 0,8.477029 -5.76438,13.097006 -5.76438,4.61998 -16.403053,4.61998 H 67.621041 Z" />
        <path
           inkscape:connector-curvature="0"
           id="path978-3"
           style="stroke:#000000;stroke-width:1.85208333;stroke-miterlimit:4;stroke-dasharray:none;stroke-opacity:1"
           d="m 231.86347,47.164148 v 8.349873 q -4.87429,-2.331183 -9.19758,-3.475581 -4.32328,-1.144399 -8.34987,-1.144399 -6.99355,0 -10.80821,2.712649 -3.77228,2.712649 -3.77228,7.714096 0,4.196129 2.50072,6.357771 2.54311,2.119257 9.57904,3.433197 l 5.17099,1.059628 q 9.57904,1.822561 14.11425,6.442542 4.5776,4.577595 4.5776,12.291691 0,9.197575 -6.18823,13.944715 -6.14585,4.74713 -18.05607,4.74713 -4.49283,0 -9.57904,-1.01724 -5.04384,-1.01724 -10.46913,-3.00935 v -8.816105 q 5.21337,2.924575 10.21482,4.408055 5.00144,1.48348 9.83335,1.48348 7.33263,0 11.31683,-2.88219 3.98421,-2.88219 3.98421,-8.222718 0,-4.662365 -2.88219,-7.290244 -2.83981,-2.627879 -9.36712,-3.941818 l -5.21337,-1.017244 q -9.57905,-1.907331 -13.85995,-5.976305 -4.28089,-4.068974 -4.28089,-11.316833 0,-8.392258 5.89153,-13.224164 5.93392,-4.831907 16.31828,-4.831907 4.45044,0 9.07042,0.805318 4.61998,0.805318 9.45189,2.415953 z" />
        <path
           inkscape:connector-curvature="0"
           id="path980-9"
           style="stroke:#000000;stroke-width:1.85208333;stroke-miterlimit:4;stroke-dasharray:none;stroke-opacity:1"
           d="m 257.59126,52.12321 v 23.778065 h 10.76582 q 5.97631,0 9.23996,-3.094116 3.26366,-3.094115 3.26366,-8.816109 0,-5.679609 -3.26366,-8.773725 -3.26365,-3.094115 -9.23996,-3.094115 z m -8.5618,-7.035934 h 19.32762 q 10.63867,0 16.06397,4.831907 5.46768,4.789521 5.46768,14.071867 0,9.367116 -5.46768,14.156637 -5.4253,4.789521 -16.06397,4.789521 h -10.76582 v 25.431082 h -8.5618 z" />
        <path
           inkscape:connector-curvature="0"
           id="path982-1"
           style="stroke:#000000;stroke-width:1.85208333;stroke-miterlimit:4;stroke-dasharray:none;stroke-opacity:1"
           d="m 327.0605,68.187179 q -1.31394,-0.762933 -2.88219,-1.102014 -1.52586,-0.381466 -3.39081,-0.381466 -6.61208,0 -10.17243,4.323284 -3.51797,4.2809 -3.51797,12.334077 v 25.00723 h -7.84125 V 60.896934 h 7.84125 v 7.375015 q 2.45834,-4.323284 6.40016,-6.400156 3.94181,-2.119257 9.57904,-2.119257 0.80532,0 1.78017,0.127155 0.97486,0.08477 2.16165,0.296696 z" />
        <path
           inkscape:connector-curvature="0"
           id="path984-5"
           style="stroke:#000000;stroke-width:1.85208333;stroke-miterlimit:4;stroke-dasharray:none;stroke-opacity:1"
           d="m 351.85582,66.364618 q -6.273,0 -9.91812,4.916676 -3.64512,4.874292 -3.64512,13.393705 0,8.519414 3.60273,13.43609 3.64513,4.874291 9.96051,4.874291 6.23062,0 9.87574,-4.916676 3.64512,-4.916676 3.64512,-13.393705 0,-8.434643 -3.64512,-13.35132 -3.64512,-4.959061 -9.87574,-4.959061 z m 0,-6.612082 q 10.17244,0 15.9792,6.612082 5.80677,6.612082 5.80677,18.310381 0,11.655914 -5.80677,18.310381 -5.80676,6.61208 -15.9792,6.61208 -10.21482,0 -16.02158,-6.61208 -5.76438,-6.654467 -5.76438,-18.310381 0,-11.698299 5.76438,-18.310381 5.80676,-6.612082 16.02158,-6.612082 z" />
        <path
           inkscape:connector-curvature="0"
           id="path986-0"
           style="stroke:#000000;stroke-width:1.85208333;stroke-miterlimit:4;stroke-dasharray:none;stroke-opacity:1"
           d="m 386.52686,60.896934 h 7.79887 V 109.216 q 0,9.07042 -3.47558,13.13939 -3.4332,4.06897 -11.10491,4.06897 h -2.96696 v -6.61208 h 2.07687 q 4.45044,0 6.06108,-2.07687 1.61063,-2.03449 1.61063,-8.51941 z m 0,-18.479922 h 7.79887 v 9.875739 h -7.79887 z" />
        <path
           inkscape:connector-curvature="0"
           id="path988-4"
           style="stroke:#000000;stroke-width:1.85208333;stroke-miterlimit:4;stroke-dasharray:none;stroke-opacity:1"
           d="m 451.20657,82.682898 v 3.814662 h -35.85783 q 0.50862,8.053177 4.8319,12.291692 4.36567,4.196128 12.12215,4.196128 4.49283,0 8.68896,-1.10201 4.23851,-1.10202 8.39226,-3.306044 v 7.375014 q -4.19613,1.78018 -8.60419,2.71265 -4.40805,0.93247 -8.94326,0.93247 -11.35922,0 -18.01369,-6.61208 -6.61208,-6.612082 -6.61208,-17.886529 0,-11.655914 6.273,-18.479922 6.31539,-6.866393 16.99644,-6.866393 9.57904,0 15.1315,6.18823 5.59484,6.145846 5.59484,16.742132 z M 443.4077,80.3941 q -0.0848,-6.400157 -3.60274,-10.214819 -3.47558,-3.814663 -9.23996,-3.814663 -6.52731,0 -10.46913,3.687507 -3.89943,3.687508 -4.49282,10.38436 z" />
        <path
           inkscape:connector-curvature="0"
           id="path990-9"
           style="stroke:#000000;stroke-width:1.85208333;stroke-miterlimit:4;stroke-dasharray:none;stroke-opacity:1"
           d="m 498.16933,62.719496 v 7.290244 q -3.30604,-1.822561 -6.65447,-2.712649 -3.30604,-0.932473 -6.69685,-0.932473 -7.58694,0 -11.78307,4.831906 -4.19613,4.789521 -4.19613,13.478475 0,8.688954 4.19613,13.520861 4.19613,4.78952 11.78307,4.78952 3.39081,0 6.69685,-0.89009 3.34843,-0.93247 6.65447,-2.755032 v 7.205472 q -3.26366,1.52587 -6.78162,2.2888 -3.47558,0.76293 -7.4174,0.76293 -10.72344,0 -17.03883,-6.73923 -6.31539,-6.739242 -6.31539,-18.183231 0,-11.613529 6.35777,-18.267996 6.40016,-6.654467 17.50507,-6.654467 3.60274,0 7.03593,0.762932 3.4332,0.720548 6.65447,2.204028 z" />
        <path
           inkscape:connector-curvature="0"
           id="path992-6"
           style="stroke:#000000;stroke-width:1.85208333;stroke-miterlimit:4;stroke-dasharray:none;stroke-opacity:1"
           d="m 519.53143,47.418459 v 13.478475 h 16.06396 v 6.061076 h -16.06396 v 25.770166 q 0,5.806765 1.56825,7.459784 1.61063,1.65302 6.48492,1.65302 h 8.01079 v 6.52731 h -8.01079 q -9.02803,0 -12.46123,-3.34842 -3.4332,-3.39081 -3.4332,-12.291694 V 66.95801 h -5.72199 v -6.061076 h 5.72199 V 47.418459 Z" />
      </g>
    </g>
    <text
       xml:space="preserve"
       style="font-style:normal;font-variant:normal;font-weight:normal;font-stretch:normal;font-size:7.94313097px;line-height:1.25;font-family:'Arial Black';-inkscape-font-specification:'Arial Black, Normal';font-variant-ligatures:normal;font-variant-caps:normal;font-variant-numeric:normal;font-feature-settings:normal;text-align:start;letter-spacing:0px;word-spacing:0px;writing-mode:lr-tb;text-anchor:start;opacity:0.72100004;fill:#000000;fill-opacity:1;stroke:none;stroke-width:0.29786742"
       x="0.45835266"
       y="294.51993"
       id="text836"><tspan
         sodipodi:role="line"
         id="tspan838"
         x="0.45835266"
         y="294.51993"
         style="stroke-width:0.29786742">Biodiversity Observation Support</tspan></text>
  </g>
</svg>
